<?xml version="1.0" encoding="utf-8"?>
<!-- Generator: Adobe Illustrator 15.0.2, SVG Export Plug-In . SVG Version: 6.00 Build 0)  -->
<!DOCTYPE svg PUBLIC "-//W3C//DTD SVG 1.1//EN" "http://www.w3.org/Graphics/SVG/1.1/DTD/svg11.dtd">
<svg version="1.1" id="Layer_1" xmlns="http://www.w3.org/2000/svg" xmlns:xlink="http://www.w3.org/1999/xlink" x="0px" y="0px"
	 width="127.7px" height="127.145px" viewBox="0 0 127.7 127.145" enable-background="new 0 0 127.7 127.145" xml:space="preserve">
<path opacity="0.05" d="M127.951,121.684c0,2.903-2.33,5.258-5.206,5.258H5.206c-2.874,0-5.206-2.354-5.206-5.258V5.305
	c0-2.904,2.332-5.258,5.206-5.258h117.539c2.876,0,5.206,2.354,5.206,5.258V121.684z"/>
<g id="Layer_3" opacity="0.03">
	<path stroke="#999999" stroke-width="0.5" d="M63.846,7.356c31.068,0,56.258,25.168,56.258,56.215
		c0,31.042-25.189,56.218-56.258,56.218c-31.065,0-56.251-25.176-56.251-56.218C7.594,32.524,32.781,7.356,63.846,7.356z"/>
</g>
<g opacity="0.73">
	<g>
		<rect x="60.77" y="4.085" width="6.158" height="6.158"/>
		<polygon points="57.646,10.628 70.052,10.628 63.849,4.334 		"/>
	</g>
	<g>
		<rect x="60.767" y="116.711" width="6.158" height="6.157"/>
		<polygon points="70.049,116.326 57.643,116.326 63.846,122.619 		"/>
	</g>
	<g>
		<rect x="117.142" y="60.494" width="6.157" height="6.158"/>
		<polygon points="116.757,57.371 116.757,69.778 123.051,63.574 		"/>
	</g>
	<g>
		<rect x="4.517" y="60.492" width="6.157" height="6.158"/>
		<polygon points="11.059,69.774 11.059,57.367 4.766,63.571 		"/>
	</g>
	<g>
		
			<rect x="100.586" y="100.316" transform="matrix(-0.7071 0.7071 -0.7071 -0.7071 250.0781 103.2028)" width="6.158" height="6.157"/>
		<polygon points="105.601,96.56 96.829,105.332 105.666,105.397 		"/>
	</g>
	<g>
		<rect x="20.949" y="20.676" transform="matrix(0.7071 -0.7071 0.7071 0.7071 -9.7594 23.948)" width="6.158" height="6.157"/>
		<polygon points="22.091,30.589 30.864,21.817 22.028,21.753 		"/>
	</g>
	<g>
		<rect x="100.591" y="20.856" transform="matrix(0.7071 0.7071 -0.7071 0.7071 47.2889 -66.2953)" width="6.158" height="6.157"/>
		<polygon points="96.835,21.998 105.608,30.771 105.672,21.934 		"/>
	</g>
	<g>
		
			<rect x="20.951" y="100.493" transform="matrix(-0.7071 -0.7071 0.7071 -0.7071 -32.2135 193.7998)" width="6.158" height="6.158"/>
		<polygon points="30.865,105.508 22.093,96.736 22.029,105.572 		"/>
	</g>
	<g>
		<circle cx="63.604" cy="62.103" r="5.25"/>
		<ellipse cx="63.604" cy="57.649" rx="0.52" ry="1.562"/>
		<circle cx="68.854" cy="62.103" r="1.228"/>
		<circle cx="58.354" cy="62.103" r="1.228"/>
	</g>
</g>
<g>
	<circle fill="none" stroke="#FF9200" cx="42.15" cy="86.523" r="5.125"/>
	<circle fill="none" stroke="#FF9200" cx="42.15" cy="86.523" r="3.075"/>
	<circle fill="none" stroke="#FF9200" cx="42.15" cy="86.523" r="1.23"/>
</g>
<g>
	<circle fill="none" stroke="#0069BF" cx="40.919" cy="36.945" r="5.125"/>
	<circle fill="none" stroke="#0069BF" cx="40.919" cy="36.945" r="3.075"/>
	<circle fill="none" stroke="#0069BF" cx="40.919" cy="36.945" r="1.23"/>
</g>
<g>
	<circle fill="none" stroke="#20BF00" cx="94.325" cy="67.353" r="5.125"/>
	<circle fill="none" stroke="#20BF00" cx="94.325" cy="67.353" r="3.075"/>
	<circle fill="none" stroke="#20BF00" cx="94.325" cy="67.353" r="1.23"/>
</g>
</svg>
