<?xml version="1.0" encoding="utf-8"?>
<!-- Generator: Adobe Illustrator 15.0.2, SVG Export Plug-In . SVG Version: 6.00 Build 0)  -->
<!DOCTYPE svg PUBLIC "-//W3C//DTD SVG 1.1//EN" "http://www.w3.org/Graphics/SVG/1.1/DTD/svg11.dtd">
<svg version="1.1" xmlns="http://www.w3.org/2000/svg" xmlns:xlink="http://www.w3.org/1999/xlink" x="0px" y="0px" width="127.7px"
	 height="127.145px" viewBox="0 0 127.7 127.145" enable-background="new 0 0 127.7 127.145" xml:space="preserve">
<g id="Layer_3">
	<path fill="none" stroke="#606060" d="M127.788,113.131"/>
	<line fill="none" stroke="#999999" x1="0" y1="63.573" x2="127.127" y2="63.573"/>
	<line fill="none" stroke="#999999" x1="64.029" y1="-0.073" x2="64.029" y2="127.217"/>
	<line fill="none" stroke="#999999" x1="96.697" y1="8.924" x2="31.363" y2="118.221"/>
	<line fill="none" stroke="#999999" x1="9.189" y1="31.226" x2="118.868" y2="95.917"/>
	<ellipse fill="none" stroke="#999999" cx="64.032" cy="63.577" rx="22.013" ry="21.997"/>
	<path fill="none" stroke="#999999" d="M64.032,29.043c19.087,0,34.561,15.461,34.561,34.535c0,19.07-15.474,34.535-34.561,34.535
		c-19.085,0-34.557-15.465-34.557-34.535C29.475,44.504,44.946,29.043,64.032,29.043z"/>
	<path fill="none" stroke="#999999" d="M63.561,13.704c27.56,0,49.904,22.326,49.904,49.867c0,27.536-22.344,49.868-49.904,49.868
		c-27.557,0-49.898-22.332-49.898-49.868C13.662,36.03,36.003,13.704,63.561,13.704z"/>
	<line fill="none" stroke="#999999" x1="119.565" y1="32.758" x2="8.135" y2="94.385"/>
	<line fill="none" stroke="#999999" x1="32.709" y1="8.141" x2="95.357" y2="118.999"/>
	<ellipse fill="#FFFFFF" stroke="#999999" cx="64.029" cy="63.573" rx="10.229" ry="10.222"/>
	<path fill="none" stroke="#999999" d="M64.031,0.478c34.869,0,63.139,28.247,63.139,63.092c0,34.839-28.27,63.093-63.139,63.093
		c-34.866,0-63.132-28.254-63.132-63.093C0.898,28.724,29.165,0.478,64.031,0.478z"/>
</g>
<g id="Layer_2">
	<circle fill="none" stroke="#0303FC" stroke-width="0.75" cx="95.512" cy="63.577" r="30.967"/>
	<circle fill="none" stroke="#FF0000" stroke-width="0.75" cx="32.873" cy="63.577" r="30.941"/>
</g>
</svg>
