<?xml version="1.0"?>
<svg xmlns="http://www.w3.org/2000/svg" xmlns:xlink="http://www.w3.org/1999/xlink" viewBox="0 0 313.800000 348.000000" width="156.900000mm" height="174.000000mm" version="1.1">
<defs>
   <filter id="filter" filterRes="18" x="0" y="0">
     <feGaussianBlur in="SourceGraphic" stdDeviation="1.55" result="blur"/>
     <feOffset in="blur" dx="3" dy="3"/>
   </filter>
</defs>
<a xlink:href="gainRight-0x7ffa4e3463b0.svg">
<rect x="1.000000" y="1.000000" width="312.800000" height="347.000000" rx="0.1" ry="0.1" style="stroke:none;fill:#aaaaaa;;filter:url(#filter);"/>
<rect x="0.000000" y="0.000000" width="312.800000" height="347.000000" rx="0" ry="0" style="stroke:none;fill:#ffffff;"/>
</a>
<text x="10.000000" y="7.000000" font-family="Arial" font-size="7"></text>
<rect x="94.550000" y="35.000000" width="38.700000" height="24.000000" rx="0.1" ry="0.1" style="stroke:none;fill:#aaaaaa;;filter:url(#filter);"/>
<rect x="93.550000" y="34.000000" width="38.700000" height="24.000000" rx="0" ry="0" style="stroke:none;fill:#f44800;"/>
<text x="112.900000" y="48.000000" font-family="Arial" font-size="7" text-anchor="middle" fill="#FFFFFF">3.14159</text>
<circle cx="95.550000" cy="36.000000" r="1"/>
<line x1="84.550000" y1="25.000000" x2="84.550000" y2="67.000000"  style="stroke: black; stroke-linecap:round; stroke-width:0.25; stroke-dasharray:3,3;"/>
<line x1="84.550000" y1="67.000000" x2="141.250000" y2="67.000000"  style="stroke: black; stroke-linecap:round; stroke-width:0.25; stroke-dasharray:3,3;"/>
<line x1="141.250000" y1="67.000000" x2="141.250000" y2="25.000000"  style="stroke: black; stroke-linecap:round; stroke-width:0.25; stroke-dasharray:3,3;"/>
<line x1="84.550000" y1="25.000000" x2="89.550000" y2="25.000000"  style="stroke: black; stroke-linecap:round; stroke-width:0.25; stroke-dasharray:3,3;"/>
<line x1="102.450000" y1="25.000000" x2="141.250000" y2="25.000000"  style="stroke: black; stroke-linecap:round; stroke-width:0.25; stroke-dasharray:3,3;"/>
<text x="89.550000" y="27.000000" font-family="Arial" font-size="7">PI</text>
<rect x="101.900000" y="77.000000" width="24.000000" height="24.000000" rx="0.1" ry="0.1" style="stroke:none;fill:#aaaaaa;;filter:url(#filter);"/>
<rect x="100.900000" y="76.000000" width="24.000000" height="24.000000" rx="0" ry="0" style="stroke:none;fill:#f44800;"/>
<text x="112.900000" y="90.000000" font-family="Arial" font-size="7" text-anchor="middle" fill="#FFFFFF">0.5</text>
<circle cx="102.900000" cy="78.000000" r="1"/>
<rect x="159.250000" y="51.000000" width="24.000000" height="24.000000" rx="0.1" ry="0.1" style="stroke:none;fill:#aaaaaa;;filter:url(#filter);"/>
<rect x="158.250000" y="50.000000" width="24.000000" height="24.000000" rx="0" ry="0" style="stroke:none;fill:#4B71A1;"/>
<text x="170.250000" y="64.000000" font-family="Arial" font-size="7" text-anchor="middle" fill="#FFFFFF">*</text>
<circle cx="160.250000" cy="52.000000" r="1"/>
<line x1="155.250000" y1="57.000000" x2="158.250000" y2="58.000000"  transform="rotate(0.000000,158.250000,58.000000)" style="stroke: black; stroke-width:0.25;"/>
<line x1="155.250000" y1="59.000000" x2="158.250000" y2="58.000000"  transform="rotate(0.000000,158.250000,58.000000)" style="stroke: black; stroke-width:0.25;"/>
<line x1="155.250000" y1="65.000000" x2="158.250000" y2="66.000000"  transform="rotate(0.000000,158.250000,66.000000)" style="stroke: black; stroke-width:0.25;"/>
<line x1="155.250000" y1="67.000000" x2="158.250000" y2="66.000000"  transform="rotate(0.000000,158.250000,66.000000)" style="stroke: black; stroke-width:0.25;"/>
<rect x="25.900000" y="109.000000" width="24.000000" height="24.000000" rx="0.1" ry="0.1" style="stroke:none;fill:#aaaaaa;;filter:url(#filter);"/>
<rect x="24.900000" y="108.000000" width="24.000000" height="24.000000" rx="0" ry="0" style="stroke:none;fill:#f44800;"/>
<text x="36.900000" y="122.000000" font-family="Arial" font-size="7" text-anchor="middle" fill="#FFFFFF">180</text>
<circle cx="26.900000" cy="110.000000" r="1"/>
<rect x="25.000000" y="141.000000" width="25.800000" height="24.000000" rx="0.1" ry="0.1" style="stroke:none;fill:#aaaaaa;;filter:url(#filter);"/>
<rect x="24.000000" y="140.000000" width="25.800000" height="24.000000" rx="0" ry="0" style="stroke:none;fill:#f44800;"/>
<text x="36.900000" y="154.000000" font-family="Arial" font-size="7" text-anchor="middle" fill="#FFFFFF">112.5</text>
<circle cx="26.000000" cy="142.000000" r="1"/>
<rect x="66.800000" y="125.000000" width="24.000000" height="24.000000" rx="0.1" ry="0.1" style="stroke:none;fill:#aaaaaa;;filter:url(#filter);"/>
<rect x="65.800000" y="124.000000" width="24.000000" height="24.000000" rx="0" ry="0" style="stroke:none;fill:#4B71A1;"/>
<text x="77.800000" y="138.000000" font-family="Arial" font-size="7" text-anchor="middle" fill="#FFFFFF">-</text>
<circle cx="67.800000" cy="126.000000" r="1"/>
<line x1="62.800000" y1="131.000000" x2="65.800000" y2="132.000000"  transform="rotate(0.000000,65.800000,132.000000)" style="stroke: black; stroke-width:0.25;"/>
<line x1="62.800000" y1="133.000000" x2="65.800000" y2="132.000000"  transform="rotate(0.000000,65.800000,132.000000)" style="stroke: black; stroke-width:0.25;"/>
<line x1="62.800000" y1="139.000000" x2="65.800000" y2="140.000000"  transform="rotate(0.000000,65.800000,140.000000)" style="stroke: black; stroke-width:0.25;"/>
<line x1="62.800000" y1="141.000000" x2="65.800000" y2="140.000000"  transform="rotate(0.000000,65.800000,140.000000)" style="stroke: black; stroke-width:0.25;"/>
<rect x="45.900000" y="173.000000" width="24.000000" height="24.000000" rx="0.1" ry="0.1" style="stroke:none;fill:#aaaaaa;;filter:url(#filter);"/>
<rect x="44.900000" y="172.000000" width="24.000000" height="24.000000" rx="0" ry="0" style="stroke:none;fill:#f44800;"/>
<text x="56.900000" y="186.000000" font-family="Arial" font-size="7" text-anchor="middle" fill="#FFFFFF">150</text>
<circle cx="46.900000" cy="174.000000" r="1"/>
<rect x="106.800000" y="141.000000" width="24.000000" height="24.000000" rx="0.1" ry="0.1" style="stroke:none;fill:#aaaaaa;;filter:url(#filter);"/>
<rect x="105.800000" y="140.000000" width="24.000000" height="24.000000" rx="0" ry="0" style="stroke:none;fill:#4B71A1;"/>
<text x="117.800000" y="154.000000" font-family="Arial" font-size="7" text-anchor="middle" fill="#FFFFFF">/</text>
<circle cx="107.800000" cy="142.000000" r="1"/>
<line x1="102.800000" y1="147.000000" x2="105.800000" y2="148.000000"  transform="rotate(0.000000,105.800000,148.000000)" style="stroke: black; stroke-width:0.25;"/>
<line x1="102.800000" y1="149.000000" x2="105.800000" y2="148.000000"  transform="rotate(0.000000,105.800000,148.000000)" style="stroke: black; stroke-width:0.25;"/>
<line x1="102.800000" y1="155.000000" x2="105.800000" y2="156.000000"  transform="rotate(0.000000,105.800000,156.000000)" style="stroke: black; stroke-width:0.25;"/>
<line x1="102.800000" y1="157.000000" x2="105.800000" y2="156.000000"  transform="rotate(0.000000,105.800000,156.000000)" style="stroke: black; stroke-width:0.25;"/>
<rect x="45.000000" y="205.000000" width="25.800000" height="24.000000" rx="0.1" ry="0.1" style="stroke:none;fill:#aaaaaa;;filter:url(#filter);"/>
<rect x="44.000000" y="204.000000" width="25.800000" height="24.000000" rx="0" ry="0" style="stroke:none;fill:#f44800;"/>
<text x="56.900000" y="218.000000" font-family="Arial" font-size="7" text-anchor="middle" fill="#FFFFFF">112.5</text>
<circle cx="46.000000" cy="206.000000" r="1"/>
<rect x="45.900000" y="237.000000" width="24.000000" height="24.000000" rx="0.1" ry="0.1" style="stroke:none;fill:#aaaaaa;;filter:url(#filter);"/>
<rect x="44.900000" y="236.000000" width="24.000000" height="24.000000" rx="0" ry="0" style="stroke:none;fill:#f44800;"/>
<text x="56.900000" y="250.000000" font-family="Arial" font-size="7" text-anchor="middle" fill="#FFFFFF">330</text>
<circle cx="46.900000" cy="238.000000" r="1"/>
<rect x="86.800000" y="221.000000" width="24.000000" height="24.000000" rx="0.1" ry="0.1" style="stroke:none;fill:#aaaaaa;;filter:url(#filter);"/>
<rect x="85.800000" y="220.000000" width="24.000000" height="24.000000" rx="0" ry="0" style="stroke:none;fill:#4B71A1;"/>
<text x="97.800000" y="234.000000" font-family="Arial" font-size="7" text-anchor="middle" fill="#FFFFFF">&lt;</text>
<circle cx="87.800000" cy="222.000000" r="1"/>
<line x1="82.800000" y1="227.000000" x2="85.800000" y2="228.000000"  transform="rotate(0.000000,85.800000,228.000000)" style="stroke: black; stroke-width:0.25;"/>
<line x1="82.800000" y1="229.000000" x2="85.800000" y2="228.000000"  transform="rotate(0.000000,85.800000,228.000000)" style="stroke: black; stroke-width:0.25;"/>
<line x1="82.800000" y1="235.000000" x2="85.800000" y2="236.000000"  transform="rotate(0.000000,85.800000,236.000000)" style="stroke: black; stroke-width:0.25;"/>
<line x1="82.800000" y1="237.000000" x2="85.800000" y2="236.000000"  transform="rotate(0.000000,85.800000,236.000000)" style="stroke: black; stroke-width:0.25;"/>
<rect x="146.800000" y="173.000000" width="24.000000" height="24.000000" rx="0.1" ry="0.1" style="stroke:none;fill:#aaaaaa;;filter:url(#filter);"/>
<rect x="145.800000" y="172.000000" width="24.000000" height="24.000000" rx="0" ry="0" style="stroke:none;fill:#4B71A1;"/>
<text x="157.800000" y="186.000000" font-family="Arial" font-size="7" text-anchor="middle" fill="#FFFFFF">*</text>
<circle cx="147.800000" cy="174.000000" r="1"/>
<line x1="142.800000" y1="179.000000" x2="145.800000" y2="180.000000"  transform="rotate(0.000000,145.800000,180.000000)" style="stroke: black; stroke-width:0.25;"/>
<line x1="142.800000" y1="181.000000" x2="145.800000" y2="180.000000"  transform="rotate(0.000000,145.800000,180.000000)" style="stroke: black; stroke-width:0.25;"/>
<line x1="142.800000" y1="187.000000" x2="145.800000" y2="188.000000"  transform="rotate(0.000000,145.800000,188.000000)" style="stroke: black; stroke-width:0.25;"/>
<line x1="142.800000" y1="189.000000" x2="145.800000" y2="188.000000"  transform="rotate(0.000000,145.800000,188.000000)" style="stroke: black; stroke-width:0.25;"/>
<rect x="65.000000" y="269.000000" width="25.800000" height="24.000000" rx="0.1" ry="0.1" style="stroke:none;fill:#aaaaaa;;filter:url(#filter);"/>
<rect x="64.000000" y="268.000000" width="25.800000" height="24.000000" rx="0" ry="0" style="stroke:none;fill:#f44800;"/>
<text x="76.900000" y="282.000000" font-family="Arial" font-size="7" text-anchor="middle" fill="#FFFFFF">112.5</text>
<circle cx="66.000000" cy="270.000000" r="1"/>
<rect x="65.900000" y="301.000000" width="24.000000" height="24.000000" rx="0.1" ry="0.1" style="stroke:none;fill:#aaaaaa;;filter:url(#filter);"/>
<rect x="64.900000" y="300.000000" width="24.000000" height="24.000000" rx="0" ry="0" style="stroke:none;fill:#f44800;"/>
<text x="76.900000" y="314.000000" font-family="Arial" font-size="7" text-anchor="middle" fill="#FFFFFF">180</text>
<circle cx="66.900000" cy="302.000000" r="1"/>
<rect x="106.800000" y="285.000000" width="24.000000" height="24.000000" rx="0.1" ry="0.1" style="stroke:none;fill:#aaaaaa;;filter:url(#filter);"/>
<rect x="105.800000" y="284.000000" width="24.000000" height="24.000000" rx="0" ry="0" style="stroke:none;fill:#4B71A1;"/>
<text x="117.800000" y="298.000000" font-family="Arial" font-size="7" text-anchor="middle" fill="#FFFFFF">&gt;=</text>
<circle cx="107.800000" cy="286.000000" r="1"/>
<line x1="102.800000" y1="291.000000" x2="105.800000" y2="292.000000"  transform="rotate(0.000000,105.800000,292.000000)" style="stroke: black; stroke-width:0.25;"/>
<line x1="102.800000" y1="293.000000" x2="105.800000" y2="292.000000"  transform="rotate(0.000000,105.800000,292.000000)" style="stroke: black; stroke-width:0.25;"/>
<line x1="102.800000" y1="299.000000" x2="105.800000" y2="300.000000"  transform="rotate(0.000000,105.800000,300.000000)" style="stroke: black; stroke-width:0.25;"/>
<line x1="102.800000" y1="301.000000" x2="105.800000" y2="300.000000"  transform="rotate(0.000000,105.800000,300.000000)" style="stroke: black; stroke-width:0.25;"/>
<rect x="186.800000" y="205.000000" width="24.000000" height="24.000000" rx="0.1" ry="0.1" style="stroke:none;fill:#aaaaaa;;filter:url(#filter);"/>
<rect x="185.800000" y="204.000000" width="24.000000" height="24.000000" rx="0" ry="0" style="stroke:none;fill:#4B71A1;"/>
<text x="197.800000" y="218.000000" font-family="Arial" font-size="7" text-anchor="middle" fill="#FFFFFF">*</text>
<circle cx="187.800000" cy="206.000000" r="1"/>
<line x1="182.800000" y1="211.000000" x2="185.800000" y2="212.000000"  transform="rotate(0.000000,185.800000,212.000000)" style="stroke: black; stroke-width:0.25;"/>
<line x1="182.800000" y1="213.000000" x2="185.800000" y2="212.000000"  transform="rotate(0.000000,185.800000,212.000000)" style="stroke: black; stroke-width:0.25;"/>
<line x1="182.800000" y1="219.000000" x2="185.800000" y2="220.000000"  transform="rotate(0.000000,185.800000,220.000000)" style="stroke: black; stroke-width:0.25;"/>
<line x1="182.800000" y1="221.000000" x2="185.800000" y2="220.000000"  transform="rotate(0.000000,185.800000,220.000000)" style="stroke: black; stroke-width:0.25;"/>
<rect x="218.800000" y="205.000000" width="24.000000" height="24.000000" rx="0.1" ry="0.1" style="stroke:none;fill:#aaaaaa;;filter:url(#filter);"/>
<rect x="217.800000" y="204.000000" width="24.000000" height="24.000000" rx="0" ry="0" style="stroke:none;fill:#4B71A1;"/>
<text x="229.800000" y="218.000000" font-family="Arial" font-size="7" text-anchor="middle" fill="#FFFFFF">abs</text>
<circle cx="219.800000" cy="206.000000" r="1"/>
<line x1="214.800000" y1="215.000000" x2="217.800000" y2="216.000000"  transform="rotate(0.000000,217.800000,216.000000)" style="stroke: black; stroke-width:0.25;"/>
<line x1="214.800000" y1="217.000000" x2="217.800000" y2="216.000000"  transform="rotate(0.000000,217.800000,216.000000)" style="stroke: black; stroke-width:0.25;"/>
<rect x="258.800000" y="163.000000" width="24.000000" height="24.000000" rx="0.1" ry="0.1" style="stroke:none;fill:#aaaaaa;;filter:url(#filter);"/>
<rect x="257.800000" y="162.000000" width="24.000000" height="24.000000" rx="0" ry="0" style="stroke:none;fill:#4B71A1;"/>
<text x="269.800000" y="176.000000" font-family="Arial" font-size="7" text-anchor="middle" fill="#FFFFFF">*</text>
<circle cx="259.800000" cy="164.000000" r="1"/>
<line x1="254.800000" y1="169.000000" x2="257.800000" y2="170.000000"  transform="rotate(0.000000,257.800000,170.000000)" style="stroke: black; stroke-width:0.25;"/>
<line x1="254.800000" y1="171.000000" x2="257.800000" y2="170.000000"  transform="rotate(0.000000,257.800000,170.000000)" style="stroke: black; stroke-width:0.25;"/>
<line x1="254.800000" y1="177.000000" x2="257.800000" y2="178.000000"  transform="rotate(0.000000,257.800000,178.000000)" style="stroke: black; stroke-width:0.25;"/>
<line x1="254.800000" y1="179.000000" x2="257.800000" y2="178.000000"  transform="rotate(0.000000,257.800000,178.000000)" style="stroke: black; stroke-width:0.25;"/>
<line x1="15.000000" y1="15.000000" x2="15.000000" y2="333.000000"  style="stroke: black; stroke-linecap:round; stroke-width:0.25; stroke-dasharray:3,3;"/>
<line x1="15.000000" y1="333.000000" x2="298.800000" y2="333.000000"  style="stroke: black; stroke-linecap:round; stroke-width:0.25; stroke-dasharray:3,3;"/>
<line x1="298.800000" y1="333.000000" x2="298.800000" y2="15.000000"  style="stroke: black; stroke-linecap:round; stroke-width:0.25; stroke-dasharray:3,3;"/>
<line x1="15.000000" y1="15.000000" x2="20.000000" y2="15.000000"  style="stroke: black; stroke-linecap:round; stroke-width:0.25; stroke-dasharray:3,3;"/>
<line x1="65.150000" y1="15.000000" x2="298.800000" y2="15.000000"  style="stroke: black; stroke-linecap:round; stroke-width:0.25; stroke-dasharray:3,3;"/>
<text x="20.000000" y="17.000000" font-family="Arial" font-size="7">ratio_cortex</text>
<line x1="300.800000" y1="173.000000" x2="303.800000" y2="174.000000"  transform="rotate(0.000000,303.800000,174.000000)" style="stroke: black; stroke-width:0.25;"/>
<line x1="300.800000" y1="175.000000" x2="303.800000" y2="174.000000"  transform="rotate(0.000000,303.800000,174.000000)" style="stroke: black; stroke-width:0.25;"/>
<line x1="48.900000" y1="120.000000" x2="52.900000" y2="120.000000"  style="stroke:black; stroke-linecap:round; stroke-width:0.25;"/>
<line x1="49.800000" y1="152.000000" x2="53.800000" y2="152.000000"  style="stroke:black; stroke-linecap:round; stroke-width:0.25;"/>
<line x1="52.900000" y1="120.000000" x2="53.800000" y2="120.000000"  style="stroke:black; stroke-linecap:round; stroke-width:0.25;"/>
<line x1="53.800000" y1="120.000000" x2="61.800000" y2="120.000000"  style="stroke:black; stroke-linecap:round; stroke-width:0.25;"/>
<line x1="53.800000" y1="140.000000" x2="61.800000" y2="140.000000"  style="stroke:black; stroke-linecap:round; stroke-width:0.25;"/>
<line x1="53.800000" y1="152.000000" x2="53.800000" y2="140.000000"  style="stroke:black; stroke-linecap:round; stroke-width:0.25;"/>
<line x1="53.800000" y1="152.000000" x2="53.800000" y2="152.000000"  style="stroke:black; stroke-linecap:round; stroke-width:0.25;"/>
<line x1="61.800000" y1="120.000000" x2="61.800000" y2="132.000000"  style="stroke:black; stroke-linecap:round; stroke-width:0.25;"/>
<line x1="61.800000" y1="132.000000" x2="61.800000" y2="132.000000"  style="stroke:black; stroke-linecap:round; stroke-width:0.25;"/>
<line x1="61.800000" y1="132.000000" x2="65.800000" y2="132.000000"  style="stroke:black; stroke-linecap:round; stroke-width:0.25;"/>
<line x1="61.800000" y1="140.000000" x2="65.800000" y2="140.000000"  style="stroke:black; stroke-linecap:round; stroke-width:0.25;"/>
<line x1="68.900000" y1="184.000000" x2="72.900000" y2="184.000000"  style="stroke:black; stroke-linecap:round; stroke-width:0.25;"/>
<line x1="68.900000" y1="248.000000" x2="72.900000" y2="248.000000"  style="stroke:black; stroke-linecap:round; stroke-width:0.25;"/>
<line x1="69.800000" y1="216.000000" x2="73.800000" y2="216.000000"  style="stroke:black; stroke-linecap:round; stroke-width:0.25;"/>
<line x1="72.900000" y1="184.000000" x2="93.800000" y2="184.000000"  style="stroke:black; stroke-linecap:round; stroke-width:0.25;"/>
<line x1="72.900000" y1="248.000000" x2="73.800000" y2="248.000000"  style="stroke:black; stroke-linecap:round; stroke-width:0.25;"/>
<line x1="73.800000" y1="216.000000" x2="81.800000" y2="216.000000"  style="stroke:black; stroke-linecap:round; stroke-width:0.25;"/>
<line x1="73.800000" y1="236.000000" x2="81.800000" y2="236.000000"  style="stroke:black; stroke-linecap:round; stroke-width:0.25;"/>
<line x1="73.800000" y1="248.000000" x2="73.800000" y2="236.000000"  style="stroke:black; stroke-linecap:round; stroke-width:0.25;"/>
<line x1="73.800000" y1="248.000000" x2="73.800000" y2="248.000000"  style="stroke:black; stroke-linecap:round; stroke-width:0.25;"/>
<line x1="81.800000" y1="216.000000" x2="81.800000" y2="228.000000"  style="stroke:black; stroke-linecap:round; stroke-width:0.25;"/>
<line x1="81.800000" y1="228.000000" x2="81.800000" y2="228.000000"  style="stroke:black; stroke-linecap:round; stroke-width:0.25;"/>
<line x1="81.800000" y1="228.000000" x2="85.800000" y2="228.000000"  style="stroke:black; stroke-linecap:round; stroke-width:0.25;"/>
<line x1="81.800000" y1="236.000000" x2="85.800000" y2="236.000000"  style="stroke:black; stroke-linecap:round; stroke-width:0.25;"/>
<line x1="88.900000" y1="312.000000" x2="92.900000" y2="312.000000"  style="stroke:black; stroke-linecap:round; stroke-width:0.25;"/>
<line x1="89.800000" y1="136.000000" x2="93.800000" y2="136.000000"  style="stroke:black; stroke-linecap:round; stroke-width:0.25;"/>
<line x1="89.800000" y1="280.000000" x2="93.800000" y2="280.000000"  style="stroke:black; stroke-linecap:round; stroke-width:0.25;"/>
<line x1="92.900000" y1="312.000000" x2="93.800000" y2="312.000000"  style="stroke:black; stroke-linecap:round; stroke-width:0.25;"/>
<line x1="93.800000" y1="136.000000" x2="101.800000" y2="136.000000"  style="stroke:black; stroke-linecap:round; stroke-width:0.25;"/>
<line x1="93.800000" y1="156.000000" x2="101.800000" y2="156.000000"  style="stroke:black; stroke-linecap:round; stroke-width:0.25;"/>
<line x1="93.800000" y1="184.000000" x2="93.800000" y2="156.000000"  style="stroke:black; stroke-linecap:round; stroke-width:0.25;"/>
<line x1="93.800000" y1="184.000000" x2="93.800000" y2="184.000000"  style="stroke:black; stroke-linecap:round; stroke-width:0.25;"/>
<line x1="93.800000" y1="280.000000" x2="101.800000" y2="280.000000"  style="stroke:black; stroke-linecap:round; stroke-width:0.25;"/>
<line x1="93.800000" y1="300.000000" x2="101.800000" y2="300.000000"  style="stroke:black; stroke-linecap:round; stroke-width:0.25;"/>
<line x1="93.800000" y1="312.000000" x2="93.800000" y2="300.000000"  style="stroke:black; stroke-linecap:round; stroke-width:0.25;"/>
<line x1="93.800000" y1="312.000000" x2="93.800000" y2="312.000000"  style="stroke:black; stroke-linecap:round; stroke-width:0.25;"/>
<line x1="101.800000" y1="136.000000" x2="101.800000" y2="148.000000"  style="stroke:black; stroke-linecap:round; stroke-width:0.25;"/>
<line x1="101.800000" y1="148.000000" x2="101.800000" y2="148.000000"  style="stroke:black; stroke-linecap:round; stroke-width:0.25;"/>
<line x1="101.800000" y1="148.000000" x2="105.800000" y2="148.000000"  style="stroke:black; stroke-linecap:round; stroke-width:0.25;"/>
<line x1="101.800000" y1="156.000000" x2="105.800000" y2="156.000000"  style="stroke:black; stroke-linecap:round; stroke-width:0.25;"/>
<line x1="101.800000" y1="280.000000" x2="101.800000" y2="292.000000"  style="stroke:black; stroke-linecap:round; stroke-width:0.25;"/>
<line x1="101.800000" y1="292.000000" x2="101.800000" y2="292.000000"  style="stroke:black; stroke-linecap:round; stroke-width:0.25;"/>
<line x1="101.800000" y1="292.000000" x2="105.800000" y2="292.000000"  style="stroke:black; stroke-linecap:round; stroke-width:0.25;"/>
<line x1="101.800000" y1="300.000000" x2="105.800000" y2="300.000000"  style="stroke:black; stroke-linecap:round; stroke-width:0.25;"/>
<line x1="109.800000" y1="232.000000" x2="113.800000" y2="232.000000"  style="stroke:black; stroke-linecap:round; stroke-width:0.25;"/>
<line x1="113.800000" y1="232.000000" x2="133.800000" y2="232.000000"  style="stroke:black; stroke-linecap:round; stroke-width:0.25;"/>
<line x1="124.900000" y1="88.000000" x2="128.900000" y2="88.000000"  style="stroke:black; stroke-linecap:round; stroke-width:0.25;"/>
<line x1="128.900000" y1="88.000000" x2="146.250000" y2="88.000000"  style="stroke:black; stroke-linecap:round; stroke-width:0.25;"/>
<line x1="129.800000" y1="152.000000" x2="133.800000" y2="152.000000"  style="stroke:black; stroke-linecap:round; stroke-width:0.25;"/>
<line x1="129.800000" y1="296.000000" x2="133.800000" y2="296.000000"  style="stroke:black; stroke-linecap:round; stroke-width:0.25;"/>
<line x1="132.250000" y1="46.000000" x2="136.250000" y2="46.000000"  style="stroke:black; stroke-linecap:round; stroke-width:0.25;"/>
<line x1="133.800000" y1="152.000000" x2="141.800000" y2="152.000000"  style="stroke:black; stroke-linecap:round; stroke-width:0.25;"/>
<line x1="133.800000" y1="188.000000" x2="141.800000" y2="188.000000"  style="stroke:black; stroke-linecap:round; stroke-width:0.25;"/>
<line x1="133.800000" y1="232.000000" x2="133.800000" y2="188.000000"  style="stroke:black; stroke-linecap:round; stroke-width:0.25;"/>
<line x1="133.800000" y1="232.000000" x2="133.800000" y2="232.000000"  style="stroke:black; stroke-linecap:round; stroke-width:0.25;"/>
<line x1="133.800000" y1="296.000000" x2="173.800000" y2="296.000000"  style="stroke:black; stroke-linecap:round; stroke-width:0.25;"/>
<line x1="136.250000" y1="46.000000" x2="146.250000" y2="46.000000"  style="stroke:black; stroke-linecap:round; stroke-width:0.25;"/>
<line x1="141.800000" y1="152.000000" x2="141.800000" y2="180.000000"  style="stroke:black; stroke-linecap:round; stroke-width:0.25;"/>
<line x1="141.800000" y1="180.000000" x2="141.800000" y2="180.000000"  style="stroke:black; stroke-linecap:round; stroke-width:0.25;"/>
<line x1="141.800000" y1="180.000000" x2="145.800000" y2="180.000000"  style="stroke:black; stroke-linecap:round; stroke-width:0.25;"/>
<line x1="141.800000" y1="188.000000" x2="145.800000" y2="188.000000"  style="stroke:black; stroke-linecap:round; stroke-width:0.25;"/>
<line x1="146.250000" y1="46.000000" x2="154.250000" y2="46.000000"  style="stroke:black; stroke-linecap:round; stroke-width:0.25;"/>
<line x1="146.250000" y1="66.000000" x2="154.250000" y2="66.000000"  style="stroke:black; stroke-linecap:round; stroke-width:0.25;"/>
<line x1="146.250000" y1="88.000000" x2="146.250000" y2="66.000000"  style="stroke:black; stroke-linecap:round; stroke-width:0.25;"/>
<line x1="146.250000" y1="88.000000" x2="146.250000" y2="88.000000"  style="stroke:black; stroke-linecap:round; stroke-width:0.25;"/>
<line x1="154.250000" y1="46.000000" x2="154.250000" y2="58.000000"  style="stroke:black; stroke-linecap:round; stroke-width:0.25;"/>
<line x1="154.250000" y1="58.000000" x2="154.250000" y2="58.000000"  style="stroke:black; stroke-linecap:round; stroke-width:0.25;"/>
<line x1="154.250000" y1="58.000000" x2="158.250000" y2="58.000000"  style="stroke:black; stroke-linecap:round; stroke-width:0.25;"/>
<line x1="154.250000" y1="66.000000" x2="158.250000" y2="66.000000"  style="stroke:black; stroke-linecap:round; stroke-width:0.25;"/>
<line x1="169.800000" y1="184.000000" x2="173.800000" y2="184.000000"  style="stroke:black; stroke-linecap:round; stroke-width:0.25;"/>
<line x1="173.800000" y1="184.000000" x2="181.800000" y2="184.000000"  style="stroke:black; stroke-linecap:round; stroke-width:0.25;"/>
<line x1="173.800000" y1="220.000000" x2="181.800000" y2="220.000000"  style="stroke:black; stroke-linecap:round; stroke-width:0.25;"/>
<line x1="173.800000" y1="296.000000" x2="173.800000" y2="220.000000"  style="stroke:black; stroke-linecap:round; stroke-width:0.25;"/>
<line x1="173.800000" y1="296.000000" x2="173.800000" y2="296.000000"  style="stroke:black; stroke-linecap:round; stroke-width:0.25;"/>
<line x1="181.800000" y1="184.000000" x2="181.800000" y2="212.000000"  style="stroke:black; stroke-linecap:round; stroke-width:0.25;"/>
<line x1="181.800000" y1="212.000000" x2="181.800000" y2="212.000000"  style="stroke:black; stroke-linecap:round; stroke-width:0.25;"/>
<line x1="181.800000" y1="212.000000" x2="185.800000" y2="212.000000"  style="stroke:black; stroke-linecap:round; stroke-width:0.25;"/>
<line x1="181.800000" y1="220.000000" x2="185.800000" y2="220.000000"  style="stroke:black; stroke-linecap:round; stroke-width:0.25;"/>
<line x1="182.250000" y1="62.000000" x2="186.250000" y2="62.000000"  style="stroke:black; stroke-linecap:round; stroke-width:0.25;"/>
<line x1="186.250000" y1="62.000000" x2="245.800000" y2="62.000000"  style="stroke:black; stroke-linecap:round; stroke-width:0.25;"/>
<line x1="209.800000" y1="216.000000" x2="213.800000" y2="216.000000"  style="stroke:black; stroke-linecap:round; stroke-width:0.25;"/>
<line x1="213.800000" y1="216.000000" x2="213.800000" y2="216.000000"  style="stroke:black; stroke-linecap:round; stroke-width:0.25;"/>
<line x1="213.800000" y1="216.000000" x2="217.800000" y2="216.000000"  style="stroke:black; stroke-linecap:round; stroke-width:0.25;"/>
<line x1="241.800000" y1="216.000000" x2="245.800000" y2="216.000000"  style="stroke:black; stroke-linecap:round; stroke-width:0.25;"/>
<line x1="245.800000" y1="62.000000" x2="253.800000" y2="62.000000"  style="stroke:black; stroke-linecap:round; stroke-width:0.25;"/>
<line x1="245.800000" y1="178.000000" x2="253.800000" y2="178.000000"  style="stroke:black; stroke-linecap:round; stroke-width:0.25;"/>
<line x1="245.800000" y1="216.000000" x2="245.800000" y2="178.000000"  style="stroke:black; stroke-linecap:round; stroke-width:0.25;"/>
<line x1="245.800000" y1="216.000000" x2="245.800000" y2="216.000000"  style="stroke:black; stroke-linecap:round; stroke-width:0.25;"/>
<line x1="253.800000" y1="62.000000" x2="253.800000" y2="170.000000"  style="stroke:black; stroke-linecap:round; stroke-width:0.25;"/>
<line x1="253.800000" y1="170.000000" x2="253.800000" y2="170.000000"  style="stroke:black; stroke-linecap:round; stroke-width:0.25;"/>
<line x1="253.800000" y1="170.000000" x2="257.800000" y2="170.000000"  style="stroke:black; stroke-linecap:round; stroke-width:0.25;"/>
<line x1="253.800000" y1="178.000000" x2="257.800000" y2="178.000000"  style="stroke:black; stroke-linecap:round; stroke-width:0.25;"/>
<line x1="281.800000" y1="174.000000" x2="285.800000" y2="174.000000"  style="stroke:black; stroke-linecap:round; stroke-width:0.25;"/>
<line x1="285.800000" y1="174.000000" x2="285.800000" y2="174.000000"  style="stroke:black; stroke-linecap:round; stroke-width:0.25;"/>
<line x1="285.800000" y1="174.000000" x2="289.800000" y2="174.000000"  style="stroke:black; stroke-linecap:round; stroke-width:0.25;"/>
<line x1="289.800000" y1="174.000000" x2="293.800000" y2="174.000000"  style="stroke:black; stroke-linecap:round; stroke-width:0.25;"/>
<line x1="293.800000" y1="174.000000" x2="303.800000" y2="174.000000"  style="stroke:black; stroke-linecap:round; stroke-width:0.25;"/>
</svg>
