<?xml version="1.0" encoding="utf-8"?>
<!-- Generator: Adobe Illustrator 15.0.2, SVG Export Plug-In . SVG Version: 6.00 Build 0)  -->
<!DOCTYPE svg PUBLIC "-//W3C//DTD SVG 1.1//EN" "http://www.w3.org/Graphics/SVG/1.1/DTD/svg11.dtd">
<svg version="1.1" id="Layer_4" xmlns="http://www.w3.org/2000/svg" xmlns:xlink="http://www.w3.org/1999/xlink" x="0px" y="0px"
	 width="128px" height="128px" viewBox="0 0 128 128" enable-background="new 0 0 128 128" xml:space="preserve">
<path fill="#565758" d="M128,117.199c0,5.965-4.836,10.801-10.801,10.801H10.801C4.836,127.999,0,123.164,0,117.199v-106.4
	c0-5.965,4.836-10.8,10.801-10.8h106.398c5.965,0,10.801,4.835,10.801,10.8V117.199z"/>
<circle fill="#CCCCCC" stroke="#5B5B5B" stroke-width="2" stroke-miterlimit="10" cx="64.121" cy="63.999" r="55.75"/>
<g id="Layer_3">
	<path fill="none" stroke="#606060" stroke-width="0.25" d="M119.109,106.812"/>
	<line fill="none" stroke="#999999" stroke-width="0.25" x1="8.891" y1="64.069" x2="118.54" y2="64.069"/>
	<line fill="none" stroke="#999999" stroke-width="0.25" x1="64.116" y1="9.172" x2="64.116" y2="118.962"/>
	<line fill="none" stroke="#999999" stroke-width="0.25" x1="92.293" y1="16.933" x2="35.941" y2="111.203"/>
	<line fill="none" stroke="#999999" stroke-width="0.25" x1="16.816" y1="36.168" x2="111.416" y2="91.966"/>
	<ellipse fill="none" stroke="#999999" stroke-width="0.25" cx="64.119" cy="64.072" rx="18.988" ry="18.973"/>
	<path fill="none" stroke="#999999" stroke-width="0.25" d="M64.119,34.286c16.463,0,29.809,13.335,29.809,29.787
		c0,16.448-13.346,29.787-29.809,29.787c-16.461,0-29.806-13.339-29.806-29.787C34.313,47.621,47.657,34.286,64.119,34.286z"/>
	<path fill="none" stroke="#999999" stroke-width="0.25" d="M63.713,21.056c23.771,0,43.043,19.257,43.043,43.01
		c0,23.751-19.271,43.013-43.043,43.013c-23.768,0-43.039-19.262-43.039-43.013C20.674,40.312,39.943,21.056,63.713,21.056z"/>
	<line fill="none" stroke="#999999" stroke-width="0.25" x1="112.018" y1="37.49" x2="15.907" y2="90.644"/>
	<line fill="none" stroke="#999999" stroke-width="0.25" x1="37.103" y1="16.257" x2="91.138" y2="111.875"/>
	<ellipse fill="#CCCCCC" stroke="#999999" stroke-width="0.25" cx="64.116" cy="64.068" rx="8.823" ry="8.817"/>
	<path fill="none" stroke="#999999" stroke-width="0.25" d="M64.119,9.647c30.075,0,54.458,24.364,54.458,54.418
		c0,30.051-24.384,54.42-54.458,54.42c-30.074,0-54.453-24.369-54.453-54.42C9.665,34.01,34.045,9.647,64.119,9.647z"/>
</g>
<path opacity="0.61" fill="#D17D8A" stroke="#FF0000" stroke-width="0.5" stroke-miterlimit="10" d="M64.334,64.444
	c0,0,1.032-0.026,1.676,0.915c1.066,1.56,1.066,1.56,1.373,2.453c0,0,0.91,5.158-1.123,10.127c0,0-0.933,2.039-2.63,2.209
	c0,0-3.078-0.088-3.563-7.264c0,0-0.205-2.883,0.708-5.178c0,0,0.956-2.242,1.739-2.539S63.402,64.465,64.334,64.444z"/>
<path opacity="0.61" fill="#7D9CD3" stroke="#0600FF" stroke-width="0.5" stroke-miterlimit="10" d="M64.121,64
	c0,0-5.094,5-15.51,3.184S35.963,61.108,33.25,57.25c0,0-13.271-21.534,7.25-40.993c0,0,7.405-7.288,23.616-7.084
	c0,0,32.551-0.726,35.509,29.202c0,0,0.734,14.757-8.505,23.761c0,0-3.588,3.973-11.119,4.782
	C72.469,67.728,69.067,67.977,64.121,64z"/>
</svg>
