<?xml version="1.0"?>
<svg xmlns="http://www.w3.org/2000/svg" xmlns:xlink="http://www.w3.org/1999/xlink" viewBox="0 0 399.400000 72.000000" width="199.700000mm" height="36.000000mm" version="1.1">
<defs>
   <filter id="filter" filterRes="18" x="0" y="0">
     <feGaussianBlur in="SourceGraphic" stdDeviation="1.55" result="blur"/>
     <feOffset in="blur" dx="3" dy="3"/>
   </filter>
</defs>
<a xlink:href="map-0x7fdbc96988c0.svg">
<rect x="1.000000" y="1.000000" width="398.400000" height="71.000000" rx="0.1" ry="0.1" style="stroke:none;fill:#aaaaaa;;filter:url(#filter);"/>
<rect x="0.000000" y="0.000000" width="398.400000" height="71.000000" rx="0" ry="0" style="stroke:none;fill:#ffffff;"/>
</a>
<text x="10.000000" y="7.000000" font-family="Arial" font-size="7"></text>
<rect x="25.000000" y="25.000000" width="206.400000" height="24.000000" rx="0.1" ry="0.1" style="stroke:none;fill:#aaaaaa;;filter:url(#filter);"/>
<rect x="24.000000" y="24.000000" width="206.400000" height="24.000000" rx="0" ry="0" style="stroke:none;fill:#477881;"/>
<text x="127.200000" y="38.000000" font-family="Arial" font-size="7" text-anchor="middle" fill="#FFFFFF">hslider(Angle, 62831, -6.28319, 6.28319, 0.001)</text>
<circle cx="26.000000" cy="26.000000" r="1"/>
<a xlink:href="smooth-0x7fdbc95dab40.svg">
<rect x="239.400000" y="25.000000" width="129.000000" height="24.000000" rx="0.1" ry="0.1" style="stroke:none;fill:#aaaaaa;;filter:url(#filter);"/>
<rect x="238.400000" y="24.000000" width="129.000000" height="24.000000" rx="0" ry="0" style="stroke:none;fill:#003366;"/>
</a>
<a xlink:href="smooth-0x7fdbc95dab40.svg">
<text x="302.900000" y="38.000000" font-family="Arial" font-size="7" text-anchor="middle" fill="#FFFFFF">smooth(-1,(0....in):*):/:exp)</text>
</a>
<circle cx="240.400000" cy="26.000000" r="1"/>
<line x1="235.400000" y1="35.000000" x2="238.400000" y2="36.000000"  transform="rotate(0.000000,238.400000,36.000000)" style="stroke: black; stroke-width:0.25;"/>
<line x1="235.400000" y1="37.000000" x2="238.400000" y2="36.000000"  transform="rotate(0.000000,238.400000,36.000000)" style="stroke: black; stroke-width:0.25;"/>
<line x1="15.000000" y1="15.000000" x2="15.000000" y2="57.000000"  style="stroke: black; stroke-linecap:round; stroke-width:0.25; stroke-dasharray:3,3;"/>
<line x1="15.000000" y1="57.000000" x2="384.400000" y2="57.000000"  style="stroke: black; stroke-linecap:round; stroke-width:0.25; stroke-dasharray:3,3;"/>
<line x1="384.400000" y1="57.000000" x2="384.400000" y2="15.000000"  style="stroke: black; stroke-linecap:round; stroke-width:0.25; stroke-dasharray:3,3;"/>
<line x1="15.000000" y1="15.000000" x2="20.000000" y2="15.000000"  style="stroke: black; stroke-linecap:round; stroke-width:0.25; stroke-dasharray:3,3;"/>
<line x1="32.900000" y1="15.000000" x2="384.400000" y2="15.000000"  style="stroke: black; stroke-linecap:round; stroke-width:0.25; stroke-dasharray:3,3;"/>
<text x="20.000000" y="17.000000" font-family="Arial" font-size="7">a1</text>
<line x1="386.400000" y1="35.000000" x2="389.400000" y2="36.000000"  transform="rotate(0.000000,389.400000,36.000000)" style="stroke: black; stroke-width:0.25;"/>
<line x1="386.400000" y1="37.000000" x2="389.400000" y2="36.000000"  transform="rotate(0.000000,389.400000,36.000000)" style="stroke: black; stroke-width:0.25;"/>
<line x1="230.400000" y1="36.000000" x2="234.400000" y2="36.000000"  style="stroke:black; stroke-linecap:round; stroke-width:0.25;"/>
<line x1="234.400000" y1="36.000000" x2="234.400000" y2="36.000000"  style="stroke:black; stroke-linecap:round; stroke-width:0.25;"/>
<line x1="234.400000" y1="36.000000" x2="238.400000" y2="36.000000"  style="stroke:black; stroke-linecap:round; stroke-width:0.25;"/>
<line x1="367.400000" y1="36.000000" x2="371.400000" y2="36.000000"  style="stroke:black; stroke-linecap:round; stroke-width:0.25;"/>
<line x1="371.400000" y1="36.000000" x2="371.400000" y2="36.000000"  style="stroke:black; stroke-linecap:round; stroke-width:0.25;"/>
<line x1="371.400000" y1="36.000000" x2="375.400000" y2="36.000000"  style="stroke:black; stroke-linecap:round; stroke-width:0.25;"/>
<line x1="375.400000" y1="36.000000" x2="379.400000" y2="36.000000"  style="stroke:black; stroke-linecap:round; stroke-width:0.25;"/>
<line x1="379.400000" y1="36.000000" x2="389.400000" y2="36.000000"  style="stroke:black; stroke-linecap:round; stroke-width:0.25;"/>
</svg>
