<?xml version="1.0"?>
<svg xmlns="http://www.w3.org/2000/svg" xmlns:xlink="http://www.w3.org/1999/xlink" viewBox="0 0 382.900000 168.000000" width="191.450000mm" height="84.000000mm" version="1.1">
<defs>
   <filter id="filter" filterRes="18" x="0" y="0">
     <feGaussianBlur in="SourceGraphic" stdDeviation="1.55" result="blur"/>
     <feOffset in="blur" dx="3" dy="3"/>
   </filter>
</defs>
<rect x="1.000000" y="1.000000" width="381.900000" height="167.000000" rx="0.1" ry="0.1" style="stroke:none;fill:#aaaaaa;;filter:url(#filter);"/>
<rect x="0.000000" y="0.000000" width="381.900000" height="167.000000" rx="0" ry="0" style="stroke:none;fill:#ffffff;"/>
<text x="10.000000" y="7.000000" font-family="Arial" font-size="7"></text>
<rect x="33.000000" y="73.000000" width="24.000000" height="24.000000" rx="0.1" ry="0.1" style="stroke:none;fill:#aaaaaa;;filter:url(#filter);"/>
<rect x="32.000000" y="72.000000" width="24.000000" height="24.000000" rx="0" ry="0" style="stroke:none;fill:#47945E;"/>
<text x="44.000000" y="86.000000" font-family="Arial" font-size="7" text-anchor="middle" fill="#FFFFFF">sig</text>
<circle cx="34.000000" cy="74.000000" r="1"/>
<line x1="29.000000" y1="83.000000" x2="32.000000" y2="84.000000"  transform="rotate(0.000000,32.000000,84.000000)" style="stroke: black; stroke-width:0.25;"/>
<line x1="29.000000" y1="85.000000" x2="32.000000" y2="84.000000"  transform="rotate(0.000000,32.000000,84.000000)" style="stroke: black; stroke-width:0.25;"/>
<a xlink:href="map-0x7ff5e1e98830.svg">
<rect x="65.000000" y="25.000000" width="129.000000" height="120.000000" rx="0.1" ry="0.1" style="stroke:none;fill:#aaaaaa;;filter:url(#filter);"/>
<rect x="64.000000" y="24.000000" width="129.000000" height="120.000000" rx="0" ry="0" style="stroke:none;fill:#003366;"/>
</a>
<a xlink:href="map-0x7ff5e1e98830.svg">
<text x="128.500000" y="86.000000" font-family="Arial" font-size="7" text-anchor="middle" fill="#FFFFFF">map(7)(#1)(hs...*):/:exp):*))</text>
</a>
<circle cx="66.000000" cy="26.000000" r="1"/>
<a xlink:href="optimInPhase-0x7ff5e2909980.svg">
<rect x="202.000000" y="25.000000" width="64.500000" height="120.000000" rx="0.1" ry="0.1" style="stroke:none;fill:#aaaaaa;;filter:url(#filter);"/>
<rect x="201.000000" y="24.000000" width="64.500000" height="120.000000" rx="0" ry="0" style="stroke:none;fill:#003366;"/>
</a>
<a xlink:href="optimInPhase-0x7ff5e2909980.svg">
<text x="233.250000" y="86.000000" font-family="Arial" font-size="7" text-anchor="middle" fill="#FFFFFF">optimInPhase(7)</text>
</a>
<circle cx="203.000000" cy="26.000000" r="1"/>
<line x1="198.000000" y1="27.000000" x2="201.000000" y2="28.000000"  transform="rotate(0.000000,201.000000,28.000000)" style="stroke: black; stroke-width:0.25;"/>
<line x1="198.000000" y1="29.000000" x2="201.000000" y2="28.000000"  transform="rotate(0.000000,201.000000,28.000000)" style="stroke: black; stroke-width:0.25;"/>
<line x1="198.000000" y1="35.000000" x2="201.000000" y2="36.000000"  transform="rotate(0.000000,201.000000,36.000000)" style="stroke: black; stroke-width:0.25;"/>
<line x1="198.000000" y1="37.000000" x2="201.000000" y2="36.000000"  transform="rotate(0.000000,201.000000,36.000000)" style="stroke: black; stroke-width:0.25;"/>
<line x1="198.000000" y1="43.000000" x2="201.000000" y2="44.000000"  transform="rotate(0.000000,201.000000,44.000000)" style="stroke: black; stroke-width:0.25;"/>
<line x1="198.000000" y1="45.000000" x2="201.000000" y2="44.000000"  transform="rotate(0.000000,201.000000,44.000000)" style="stroke: black; stroke-width:0.25;"/>
<line x1="198.000000" y1="51.000000" x2="201.000000" y2="52.000000"  transform="rotate(0.000000,201.000000,52.000000)" style="stroke: black; stroke-width:0.25;"/>
<line x1="198.000000" y1="53.000000" x2="201.000000" y2="52.000000"  transform="rotate(0.000000,201.000000,52.000000)" style="stroke: black; stroke-width:0.25;"/>
<line x1="198.000000" y1="59.000000" x2="201.000000" y2="60.000000"  transform="rotate(0.000000,201.000000,60.000000)" style="stroke: black; stroke-width:0.25;"/>
<line x1="198.000000" y1="61.000000" x2="201.000000" y2="60.000000"  transform="rotate(0.000000,201.000000,60.000000)" style="stroke: black; stroke-width:0.25;"/>
<line x1="198.000000" y1="67.000000" x2="201.000000" y2="68.000000"  transform="rotate(0.000000,201.000000,68.000000)" style="stroke: black; stroke-width:0.25;"/>
<line x1="198.000000" y1="69.000000" x2="201.000000" y2="68.000000"  transform="rotate(0.000000,201.000000,68.000000)" style="stroke: black; stroke-width:0.25;"/>
<line x1="198.000000" y1="75.000000" x2="201.000000" y2="76.000000"  transform="rotate(0.000000,201.000000,76.000000)" style="stroke: black; stroke-width:0.25;"/>
<line x1="198.000000" y1="77.000000" x2="201.000000" y2="76.000000"  transform="rotate(0.000000,201.000000,76.000000)" style="stroke: black; stroke-width:0.25;"/>
<line x1="198.000000" y1="83.000000" x2="201.000000" y2="84.000000"  transform="rotate(0.000000,201.000000,84.000000)" style="stroke: black; stroke-width:0.25;"/>
<line x1="198.000000" y1="85.000000" x2="201.000000" y2="84.000000"  transform="rotate(0.000000,201.000000,84.000000)" style="stroke: black; stroke-width:0.25;"/>
<line x1="198.000000" y1="91.000000" x2="201.000000" y2="92.000000"  transform="rotate(0.000000,201.000000,92.000000)" style="stroke: black; stroke-width:0.25;"/>
<line x1="198.000000" y1="93.000000" x2="201.000000" y2="92.000000"  transform="rotate(0.000000,201.000000,92.000000)" style="stroke: black; stroke-width:0.25;"/>
<line x1="198.000000" y1="99.000000" x2="201.000000" y2="100.000000"  transform="rotate(0.000000,201.000000,100.000000)" style="stroke: black; stroke-width:0.25;"/>
<line x1="198.000000" y1="101.000000" x2="201.000000" y2="100.000000"  transform="rotate(0.000000,201.000000,100.000000)" style="stroke: black; stroke-width:0.25;"/>
<line x1="198.000000" y1="107.000000" x2="201.000000" y2="108.000000"  transform="rotate(0.000000,201.000000,108.000000)" style="stroke: black; stroke-width:0.25;"/>
<line x1="198.000000" y1="109.000000" x2="201.000000" y2="108.000000"  transform="rotate(0.000000,201.000000,108.000000)" style="stroke: black; stroke-width:0.25;"/>
<line x1="198.000000" y1="115.000000" x2="201.000000" y2="116.000000"  transform="rotate(0.000000,201.000000,116.000000)" style="stroke: black; stroke-width:0.25;"/>
<line x1="198.000000" y1="117.000000" x2="201.000000" y2="116.000000"  transform="rotate(0.000000,201.000000,116.000000)" style="stroke: black; stroke-width:0.25;"/>
<line x1="198.000000" y1="123.000000" x2="201.000000" y2="124.000000"  transform="rotate(0.000000,201.000000,124.000000)" style="stroke: black; stroke-width:0.25;"/>
<line x1="198.000000" y1="125.000000" x2="201.000000" y2="124.000000"  transform="rotate(0.000000,201.000000,124.000000)" style="stroke: black; stroke-width:0.25;"/>
<line x1="198.000000" y1="131.000000" x2="201.000000" y2="132.000000"  transform="rotate(0.000000,201.000000,132.000000)" style="stroke: black; stroke-width:0.25;"/>
<line x1="198.000000" y1="133.000000" x2="201.000000" y2="132.000000"  transform="rotate(0.000000,201.000000,132.000000)" style="stroke: black; stroke-width:0.25;"/>
<line x1="198.000000" y1="139.000000" x2="201.000000" y2="140.000000"  transform="rotate(0.000000,201.000000,140.000000)" style="stroke: black; stroke-width:0.25;"/>
<line x1="198.000000" y1="141.000000" x2="201.000000" y2="140.000000"  transform="rotate(0.000000,201.000000,140.000000)" style="stroke: black; stroke-width:0.25;"/>
<a xlink:href="decoderStereo-0x7ff5e6b68b30.svg">
<rect x="274.500000" y="25.000000" width="77.400000" height="120.000000" rx="0.1" ry="0.1" style="stroke:none;fill:#aaaaaa;;filter:url(#filter);"/>
<rect x="273.500000" y="24.000000" width="77.400000" height="120.000000" rx="0" ry="0" style="stroke:none;fill:#003366;"/>
</a>
<a xlink:href="decoderStereo-0x7ff5e6b68b30.svg">
<text x="312.200000" y="86.000000" font-family="Arial" font-size="7" text-anchor="middle" fill="#FFFFFF">decoderStereo(7)</text>
</a>
<circle cx="275.500000" cy="26.000000" r="1"/>
<line x1="270.500000" y1="27.000000" x2="273.500000" y2="28.000000"  transform="rotate(0.000000,273.500000,28.000000)" style="stroke: black; stroke-width:0.25;"/>
<line x1="270.500000" y1="29.000000" x2="273.500000" y2="28.000000"  transform="rotate(0.000000,273.500000,28.000000)" style="stroke: black; stroke-width:0.25;"/>
<line x1="270.500000" y1="35.000000" x2="273.500000" y2="36.000000"  transform="rotate(0.000000,273.500000,36.000000)" style="stroke: black; stroke-width:0.25;"/>
<line x1="270.500000" y1="37.000000" x2="273.500000" y2="36.000000"  transform="rotate(0.000000,273.500000,36.000000)" style="stroke: black; stroke-width:0.25;"/>
<line x1="270.500000" y1="43.000000" x2="273.500000" y2="44.000000"  transform="rotate(0.000000,273.500000,44.000000)" style="stroke: black; stroke-width:0.25;"/>
<line x1="270.500000" y1="45.000000" x2="273.500000" y2="44.000000"  transform="rotate(0.000000,273.500000,44.000000)" style="stroke: black; stroke-width:0.25;"/>
<line x1="270.500000" y1="51.000000" x2="273.500000" y2="52.000000"  transform="rotate(0.000000,273.500000,52.000000)" style="stroke: black; stroke-width:0.25;"/>
<line x1="270.500000" y1="53.000000" x2="273.500000" y2="52.000000"  transform="rotate(0.000000,273.500000,52.000000)" style="stroke: black; stroke-width:0.25;"/>
<line x1="270.500000" y1="59.000000" x2="273.500000" y2="60.000000"  transform="rotate(0.000000,273.500000,60.000000)" style="stroke: black; stroke-width:0.25;"/>
<line x1="270.500000" y1="61.000000" x2="273.500000" y2="60.000000"  transform="rotate(0.000000,273.500000,60.000000)" style="stroke: black; stroke-width:0.25;"/>
<line x1="270.500000" y1="67.000000" x2="273.500000" y2="68.000000"  transform="rotate(0.000000,273.500000,68.000000)" style="stroke: black; stroke-width:0.25;"/>
<line x1="270.500000" y1="69.000000" x2="273.500000" y2="68.000000"  transform="rotate(0.000000,273.500000,68.000000)" style="stroke: black; stroke-width:0.25;"/>
<line x1="270.500000" y1="75.000000" x2="273.500000" y2="76.000000"  transform="rotate(0.000000,273.500000,76.000000)" style="stroke: black; stroke-width:0.25;"/>
<line x1="270.500000" y1="77.000000" x2="273.500000" y2="76.000000"  transform="rotate(0.000000,273.500000,76.000000)" style="stroke: black; stroke-width:0.25;"/>
<line x1="270.500000" y1="83.000000" x2="273.500000" y2="84.000000"  transform="rotate(0.000000,273.500000,84.000000)" style="stroke: black; stroke-width:0.25;"/>
<line x1="270.500000" y1="85.000000" x2="273.500000" y2="84.000000"  transform="rotate(0.000000,273.500000,84.000000)" style="stroke: black; stroke-width:0.25;"/>
<line x1="270.500000" y1="91.000000" x2="273.500000" y2="92.000000"  transform="rotate(0.000000,273.500000,92.000000)" style="stroke: black; stroke-width:0.25;"/>
<line x1="270.500000" y1="93.000000" x2="273.500000" y2="92.000000"  transform="rotate(0.000000,273.500000,92.000000)" style="stroke: black; stroke-width:0.25;"/>
<line x1="270.500000" y1="99.000000" x2="273.500000" y2="100.000000"  transform="rotate(0.000000,273.500000,100.000000)" style="stroke: black; stroke-width:0.25;"/>
<line x1="270.500000" y1="101.000000" x2="273.500000" y2="100.000000"  transform="rotate(0.000000,273.500000,100.000000)" style="stroke: black; stroke-width:0.25;"/>
<line x1="270.500000" y1="107.000000" x2="273.500000" y2="108.000000"  transform="rotate(0.000000,273.500000,108.000000)" style="stroke: black; stroke-width:0.25;"/>
<line x1="270.500000" y1="109.000000" x2="273.500000" y2="108.000000"  transform="rotate(0.000000,273.500000,108.000000)" style="stroke: black; stroke-width:0.25;"/>
<line x1="270.500000" y1="115.000000" x2="273.500000" y2="116.000000"  transform="rotate(0.000000,273.500000,116.000000)" style="stroke: black; stroke-width:0.25;"/>
<line x1="270.500000" y1="117.000000" x2="273.500000" y2="116.000000"  transform="rotate(0.000000,273.500000,116.000000)" style="stroke: black; stroke-width:0.25;"/>
<line x1="270.500000" y1="123.000000" x2="273.500000" y2="124.000000"  transform="rotate(0.000000,273.500000,124.000000)" style="stroke: black; stroke-width:0.25;"/>
<line x1="270.500000" y1="125.000000" x2="273.500000" y2="124.000000"  transform="rotate(0.000000,273.500000,124.000000)" style="stroke: black; stroke-width:0.25;"/>
<line x1="270.500000" y1="131.000000" x2="273.500000" y2="132.000000"  transform="rotate(0.000000,273.500000,132.000000)" style="stroke: black; stroke-width:0.25;"/>
<line x1="270.500000" y1="133.000000" x2="273.500000" y2="132.000000"  transform="rotate(0.000000,273.500000,132.000000)" style="stroke: black; stroke-width:0.25;"/>
<line x1="270.500000" y1="139.000000" x2="273.500000" y2="140.000000"  transform="rotate(0.000000,273.500000,140.000000)" style="stroke: black; stroke-width:0.25;"/>
<line x1="270.500000" y1="141.000000" x2="273.500000" y2="140.000000"  transform="rotate(0.000000,273.500000,140.000000)" style="stroke: black; stroke-width:0.25;"/>
<line x1="15.000000" y1="15.000000" x2="15.000000" y2="153.000000"  style="stroke: black; stroke-linecap:round; stroke-width:0.25; stroke-dasharray:3,3;"/>
<line x1="15.000000" y1="153.000000" x2="367.900000" y2="153.000000"  style="stroke: black; stroke-linecap:round; stroke-width:0.25; stroke-dasharray:3,3;"/>
<line x1="367.900000" y1="153.000000" x2="367.900000" y2="15.000000"  style="stroke: black; stroke-linecap:round; stroke-width:0.25; stroke-dasharray:3,3;"/>
<line x1="15.000000" y1="15.000000" x2="20.000000" y2="15.000000"  style="stroke: black; stroke-linecap:round; stroke-width:0.25; stroke-dasharray:3,3;"/>
<line x1="49.025000" y1="15.000000" x2="367.900000" y2="15.000000"  style="stroke: black; stroke-linecap:round; stroke-width:0.25; stroke-dasharray:3,3;"/>
<text x="20.000000" y="17.000000" font-family="Arial" font-size="7">process</text>
<line x1="369.900000" y1="79.000000" x2="372.900000" y2="80.000000"  transform="rotate(0.000000,372.900000,80.000000)" style="stroke: black; stroke-width:0.25;"/>
<line x1="369.900000" y1="81.000000" x2="372.900000" y2="80.000000"  transform="rotate(0.000000,372.900000,80.000000)" style="stroke: black; stroke-width:0.25;"/>
<line x1="369.900000" y1="87.000000" x2="372.900000" y2="88.000000"  transform="rotate(0.000000,372.900000,88.000000)" style="stroke: black; stroke-width:0.25;"/>
<line x1="369.900000" y1="89.000000" x2="372.900000" y2="88.000000"  transform="rotate(0.000000,372.900000,88.000000)" style="stroke: black; stroke-width:0.25;"/>
<line x1="10.000000" y1="84.000000" x2="20.000000" y2="84.000000"  style="stroke:black; stroke-linecap:round; stroke-width:0.25;"/>
<line x1="20.000000" y1="84.000000" x2="24.000000" y2="84.000000"  style="stroke:black; stroke-linecap:round; stroke-width:0.25;"/>
<line x1="24.000000" y1="84.000000" x2="28.000000" y2="84.000000"  style="stroke:black; stroke-linecap:round; stroke-width:0.25;"/>
<line x1="28.000000" y1="84.000000" x2="28.000000" y2="84.000000"  style="stroke:black; stroke-linecap:round; stroke-width:0.25;"/>
<line x1="28.000000" y1="84.000000" x2="32.000000" y2="84.000000"  style="stroke:black; stroke-linecap:round; stroke-width:0.25;"/>
<line x1="193.000000" y1="28.000000" x2="197.000000" y2="28.000000"  style="stroke:black; stroke-linecap:round; stroke-width:0.25;"/>
<line x1="193.000000" y1="36.000000" x2="197.000000" y2="36.000000"  style="stroke:black; stroke-linecap:round; stroke-width:0.25;"/>
<line x1="193.000000" y1="44.000000" x2="197.000000" y2="44.000000"  style="stroke:black; stroke-linecap:round; stroke-width:0.25;"/>
<line x1="193.000000" y1="52.000000" x2="197.000000" y2="52.000000"  style="stroke:black; stroke-linecap:round; stroke-width:0.25;"/>
<line x1="193.000000" y1="60.000000" x2="197.000000" y2="60.000000"  style="stroke:black; stroke-linecap:round; stroke-width:0.25;"/>
<line x1="193.000000" y1="68.000000" x2="197.000000" y2="68.000000"  style="stroke:black; stroke-linecap:round; stroke-width:0.25;"/>
<line x1="193.000000" y1="76.000000" x2="197.000000" y2="76.000000"  style="stroke:black; stroke-linecap:round; stroke-width:0.25;"/>
<line x1="193.000000" y1="84.000000" x2="197.000000" y2="84.000000"  style="stroke:black; stroke-linecap:round; stroke-width:0.25;"/>
<line x1="193.000000" y1="92.000000" x2="197.000000" y2="92.000000"  style="stroke:black; stroke-linecap:round; stroke-width:0.25;"/>
<line x1="193.000000" y1="100.000000" x2="197.000000" y2="100.000000"  style="stroke:black; stroke-linecap:round; stroke-width:0.25;"/>
<line x1="193.000000" y1="108.000000" x2="197.000000" y2="108.000000"  style="stroke:black; stroke-linecap:round; stroke-width:0.25;"/>
<line x1="193.000000" y1="116.000000" x2="197.000000" y2="116.000000"  style="stroke:black; stroke-linecap:round; stroke-width:0.25;"/>
<line x1="193.000000" y1="124.000000" x2="197.000000" y2="124.000000"  style="stroke:black; stroke-linecap:round; stroke-width:0.25;"/>
<line x1="193.000000" y1="132.000000" x2="197.000000" y2="132.000000"  style="stroke:black; stroke-linecap:round; stroke-width:0.25;"/>
<line x1="193.000000" y1="140.000000" x2="197.000000" y2="140.000000"  style="stroke:black; stroke-linecap:round; stroke-width:0.25;"/>
<line x1="197.000000" y1="28.000000" x2="197.000000" y2="28.000000"  style="stroke:black; stroke-linecap:round; stroke-width:0.25;"/>
<line x1="197.000000" y1="28.000000" x2="201.000000" y2="28.000000"  style="stroke:black; stroke-linecap:round; stroke-width:0.25;"/>
<line x1="197.000000" y1="36.000000" x2="197.000000" y2="36.000000"  style="stroke:black; stroke-linecap:round; stroke-width:0.25;"/>
<line x1="197.000000" y1="36.000000" x2="201.000000" y2="36.000000"  style="stroke:black; stroke-linecap:round; stroke-width:0.25;"/>
<line x1="197.000000" y1="44.000000" x2="197.000000" y2="44.000000"  style="stroke:black; stroke-linecap:round; stroke-width:0.25;"/>
<line x1="197.000000" y1="44.000000" x2="201.000000" y2="44.000000"  style="stroke:black; stroke-linecap:round; stroke-width:0.25;"/>
<line x1="197.000000" y1="52.000000" x2="197.000000" y2="52.000000"  style="stroke:black; stroke-linecap:round; stroke-width:0.25;"/>
<line x1="197.000000" y1="52.000000" x2="201.000000" y2="52.000000"  style="stroke:black; stroke-linecap:round; stroke-width:0.25;"/>
<line x1="197.000000" y1="60.000000" x2="197.000000" y2="60.000000"  style="stroke:black; stroke-linecap:round; stroke-width:0.25;"/>
<line x1="197.000000" y1="60.000000" x2="201.000000" y2="60.000000"  style="stroke:black; stroke-linecap:round; stroke-width:0.25;"/>
<line x1="197.000000" y1="68.000000" x2="197.000000" y2="68.000000"  style="stroke:black; stroke-linecap:round; stroke-width:0.25;"/>
<line x1="197.000000" y1="68.000000" x2="201.000000" y2="68.000000"  style="stroke:black; stroke-linecap:round; stroke-width:0.25;"/>
<line x1="197.000000" y1="76.000000" x2="197.000000" y2="76.000000"  style="stroke:black; stroke-linecap:round; stroke-width:0.25;"/>
<line x1="197.000000" y1="76.000000" x2="201.000000" y2="76.000000"  style="stroke:black; stroke-linecap:round; stroke-width:0.25;"/>
<line x1="197.000000" y1="84.000000" x2="197.000000" y2="84.000000"  style="stroke:black; stroke-linecap:round; stroke-width:0.25;"/>
<line x1="197.000000" y1="84.000000" x2="201.000000" y2="84.000000"  style="stroke:black; stroke-linecap:round; stroke-width:0.25;"/>
<line x1="197.000000" y1="92.000000" x2="197.000000" y2="92.000000"  style="stroke:black; stroke-linecap:round; stroke-width:0.25;"/>
<line x1="197.000000" y1="92.000000" x2="201.000000" y2="92.000000"  style="stroke:black; stroke-linecap:round; stroke-width:0.25;"/>
<line x1="197.000000" y1="100.000000" x2="197.000000" y2="100.000000"  style="stroke:black; stroke-linecap:round; stroke-width:0.25;"/>
<line x1="197.000000" y1="100.000000" x2="201.000000" y2="100.000000"  style="stroke:black; stroke-linecap:round; stroke-width:0.25;"/>
<line x1="197.000000" y1="108.000000" x2="197.000000" y2="108.000000"  style="stroke:black; stroke-linecap:round; stroke-width:0.25;"/>
<line x1="197.000000" y1="108.000000" x2="201.000000" y2="108.000000"  style="stroke:black; stroke-linecap:round; stroke-width:0.25;"/>
<line x1="197.000000" y1="116.000000" x2="197.000000" y2="116.000000"  style="stroke:black; stroke-linecap:round; stroke-width:0.25;"/>
<line x1="197.000000" y1="116.000000" x2="201.000000" y2="116.000000"  style="stroke:black; stroke-linecap:round; stroke-width:0.25;"/>
<line x1="197.000000" y1="124.000000" x2="197.000000" y2="124.000000"  style="stroke:black; stroke-linecap:round; stroke-width:0.25;"/>
<line x1="197.000000" y1="124.000000" x2="201.000000" y2="124.000000"  style="stroke:black; stroke-linecap:round; stroke-width:0.25;"/>
<line x1="197.000000" y1="132.000000" x2="197.000000" y2="132.000000"  style="stroke:black; stroke-linecap:round; stroke-width:0.25;"/>
<line x1="197.000000" y1="132.000000" x2="201.000000" y2="132.000000"  style="stroke:black; stroke-linecap:round; stroke-width:0.25;"/>
<line x1="197.000000" y1="140.000000" x2="197.000000" y2="140.000000"  style="stroke:black; stroke-linecap:round; stroke-width:0.25;"/>
<line x1="197.000000" y1="140.000000" x2="201.000000" y2="140.000000"  style="stroke:black; stroke-linecap:round; stroke-width:0.25;"/>
<line x1="265.500000" y1="28.000000" x2="269.500000" y2="28.000000"  style="stroke:black; stroke-linecap:round; stroke-width:0.25;"/>
<line x1="265.500000" y1="36.000000" x2="269.500000" y2="36.000000"  style="stroke:black; stroke-linecap:round; stroke-width:0.25;"/>
<line x1="265.500000" y1="44.000000" x2="269.500000" y2="44.000000"  style="stroke:black; stroke-linecap:round; stroke-width:0.25;"/>
<line x1="265.500000" y1="52.000000" x2="269.500000" y2="52.000000"  style="stroke:black; stroke-linecap:round; stroke-width:0.25;"/>
<line x1="265.500000" y1="60.000000" x2="269.500000" y2="60.000000"  style="stroke:black; stroke-linecap:round; stroke-width:0.25;"/>
<line x1="265.500000" y1="68.000000" x2="269.500000" y2="68.000000"  style="stroke:black; stroke-linecap:round; stroke-width:0.25;"/>
<line x1="265.500000" y1="76.000000" x2="269.500000" y2="76.000000"  style="stroke:black; stroke-linecap:round; stroke-width:0.25;"/>
<line x1="265.500000" y1="84.000000" x2="269.500000" y2="84.000000"  style="stroke:black; stroke-linecap:round; stroke-width:0.25;"/>
<line x1="265.500000" y1="92.000000" x2="269.500000" y2="92.000000"  style="stroke:black; stroke-linecap:round; stroke-width:0.25;"/>
<line x1="265.500000" y1="100.000000" x2="269.500000" y2="100.000000"  style="stroke:black; stroke-linecap:round; stroke-width:0.25;"/>
<line x1="265.500000" y1="108.000000" x2="269.500000" y2="108.000000"  style="stroke:black; stroke-linecap:round; stroke-width:0.25;"/>
<line x1="265.500000" y1="116.000000" x2="269.500000" y2="116.000000"  style="stroke:black; stroke-linecap:round; stroke-width:0.25;"/>
<line x1="265.500000" y1="124.000000" x2="269.500000" y2="124.000000"  style="stroke:black; stroke-linecap:round; stroke-width:0.25;"/>
<line x1="265.500000" y1="132.000000" x2="269.500000" y2="132.000000"  style="stroke:black; stroke-linecap:round; stroke-width:0.25;"/>
<line x1="265.500000" y1="140.000000" x2="269.500000" y2="140.000000"  style="stroke:black; stroke-linecap:round; stroke-width:0.25;"/>
<line x1="269.500000" y1="28.000000" x2="269.500000" y2="28.000000"  style="stroke:black; stroke-linecap:round; stroke-width:0.25;"/>
<line x1="269.500000" y1="28.000000" x2="273.500000" y2="28.000000"  style="stroke:black; stroke-linecap:round; stroke-width:0.25;"/>
<line x1="269.500000" y1="36.000000" x2="269.500000" y2="36.000000"  style="stroke:black; stroke-linecap:round; stroke-width:0.25;"/>
<line x1="269.500000" y1="36.000000" x2="273.500000" y2="36.000000"  style="stroke:black; stroke-linecap:round; stroke-width:0.25;"/>
<line x1="269.500000" y1="44.000000" x2="269.500000" y2="44.000000"  style="stroke:black; stroke-linecap:round; stroke-width:0.25;"/>
<line x1="269.500000" y1="44.000000" x2="273.500000" y2="44.000000"  style="stroke:black; stroke-linecap:round; stroke-width:0.25;"/>
<line x1="269.500000" y1="52.000000" x2="269.500000" y2="52.000000"  style="stroke:black; stroke-linecap:round; stroke-width:0.25;"/>
<line x1="269.500000" y1="52.000000" x2="273.500000" y2="52.000000"  style="stroke:black; stroke-linecap:round; stroke-width:0.25;"/>
<line x1="269.500000" y1="60.000000" x2="269.500000" y2="60.000000"  style="stroke:black; stroke-linecap:round; stroke-width:0.25;"/>
<line x1="269.500000" y1="60.000000" x2="273.500000" y2="60.000000"  style="stroke:black; stroke-linecap:round; stroke-width:0.25;"/>
<line x1="269.500000" y1="68.000000" x2="269.500000" y2="68.000000"  style="stroke:black; stroke-linecap:round; stroke-width:0.25;"/>
<line x1="269.500000" y1="68.000000" x2="273.500000" y2="68.000000"  style="stroke:black; stroke-linecap:round; stroke-width:0.25;"/>
<line x1="269.500000" y1="76.000000" x2="269.500000" y2="76.000000"  style="stroke:black; stroke-linecap:round; stroke-width:0.25;"/>
<line x1="269.500000" y1="76.000000" x2="273.500000" y2="76.000000"  style="stroke:black; stroke-linecap:round; stroke-width:0.25;"/>
<line x1="269.500000" y1="84.000000" x2="269.500000" y2="84.000000"  style="stroke:black; stroke-linecap:round; stroke-width:0.25;"/>
<line x1="269.500000" y1="84.000000" x2="273.500000" y2="84.000000"  style="stroke:black; stroke-linecap:round; stroke-width:0.25;"/>
<line x1="269.500000" y1="92.000000" x2="269.500000" y2="92.000000"  style="stroke:black; stroke-linecap:round; stroke-width:0.25;"/>
<line x1="269.500000" y1="92.000000" x2="273.500000" y2="92.000000"  style="stroke:black; stroke-linecap:round; stroke-width:0.25;"/>
<line x1="269.500000" y1="100.000000" x2="269.500000" y2="100.000000"  style="stroke:black; stroke-linecap:round; stroke-width:0.25;"/>
<line x1="269.500000" y1="100.000000" x2="273.500000" y2="100.000000"  style="stroke:black; stroke-linecap:round; stroke-width:0.25;"/>
<line x1="269.500000" y1="108.000000" x2="269.500000" y2="108.000000"  style="stroke:black; stroke-linecap:round; stroke-width:0.25;"/>
<line x1="269.500000" y1="108.000000" x2="273.500000" y2="108.000000"  style="stroke:black; stroke-linecap:round; stroke-width:0.25;"/>
<line x1="269.500000" y1="116.000000" x2="269.500000" y2="116.000000"  style="stroke:black; stroke-linecap:round; stroke-width:0.25;"/>
<line x1="269.500000" y1="116.000000" x2="273.500000" y2="116.000000"  style="stroke:black; stroke-linecap:round; stroke-width:0.25;"/>
<line x1="269.500000" y1="124.000000" x2="269.500000" y2="124.000000"  style="stroke:black; stroke-linecap:round; stroke-width:0.25;"/>
<line x1="269.500000" y1="124.000000" x2="273.500000" y2="124.000000"  style="stroke:black; stroke-linecap:round; stroke-width:0.25;"/>
<line x1="269.500000" y1="132.000000" x2="269.500000" y2="132.000000"  style="stroke:black; stroke-linecap:round; stroke-width:0.25;"/>
<line x1="269.500000" y1="132.000000" x2="273.500000" y2="132.000000"  style="stroke:black; stroke-linecap:round; stroke-width:0.25;"/>
<line x1="269.500000" y1="140.000000" x2="269.500000" y2="140.000000"  style="stroke:black; stroke-linecap:round; stroke-width:0.25;"/>
<line x1="269.500000" y1="140.000000" x2="273.500000" y2="140.000000"  style="stroke:black; stroke-linecap:round; stroke-width:0.25;"/>
<line x1="350.900000" y1="80.000000" x2="354.900000" y2="80.000000"  style="stroke:black; stroke-linecap:round; stroke-width:0.25;"/>
<line x1="350.900000" y1="88.000000" x2="354.900000" y2="88.000000"  style="stroke:black; stroke-linecap:round; stroke-width:0.25;"/>
<line x1="354.900000" y1="80.000000" x2="354.900000" y2="80.000000"  style="stroke:black; stroke-linecap:round; stroke-width:0.25;"/>
<line x1="354.900000" y1="80.000000" x2="358.900000" y2="80.000000"  style="stroke:black; stroke-linecap:round; stroke-width:0.25;"/>
<line x1="354.900000" y1="88.000000" x2="354.900000" y2="88.000000"  style="stroke:black; stroke-linecap:round; stroke-width:0.25;"/>
<line x1="354.900000" y1="88.000000" x2="358.900000" y2="88.000000"  style="stroke:black; stroke-linecap:round; stroke-width:0.25;"/>
<line x1="358.900000" y1="80.000000" x2="362.900000" y2="80.000000"  style="stroke:black; stroke-linecap:round; stroke-width:0.25;"/>
<line x1="358.900000" y1="88.000000" x2="362.900000" y2="88.000000"  style="stroke:black; stroke-linecap:round; stroke-width:0.25;"/>
<line x1="362.900000" y1="80.000000" x2="372.900000" y2="80.000000"  style="stroke:black; stroke-linecap:round; stroke-width:0.25;"/>
<line x1="362.900000" y1="88.000000" x2="372.900000" y2="88.000000"  style="stroke:black; stroke-linecap:round; stroke-width:0.25;"/>
</svg>
