<?xml version="1.0"?>
<svg xmlns="http://www.w3.org/2000/svg" xmlns:xlink="http://www.w3.org/1999/xlink" viewBox="0 0 312.000000 444.000000" width="156.000000mm" height="222.000000mm" version="1.1">
<defs>
   <filter id="filter" filterRes="18" x="0" y="0">
     <feGaussianBlur in="SourceGraphic" stdDeviation="1.55" result="blur"/>
     <feOffset in="blur" dx="3" dy="3"/>
   </filter>
</defs>
<a xlink:href="gainLeft-0x7fdbce2c7780.svg">
<rect x="1.000000" y="1.000000" width="311.000000" height="443.000000" rx="0.1" ry="0.1" style="stroke:none;fill:#aaaaaa;;filter:url(#filter);"/>
<rect x="0.000000" y="0.000000" width="311.000000" height="443.000000" rx="0" ry="0" style="stroke:none;fill:#ffffff;"/>
</a>
<text x="10.000000" y="7.000000" font-family="Arial" font-size="7"></text>
<rect x="93.650000" y="35.000000" width="38.700000" height="24.000000" rx="0.1" ry="0.1" style="stroke:none;fill:#aaaaaa;;filter:url(#filter);"/>
<rect x="92.650000" y="34.000000" width="38.700000" height="24.000000" rx="0" ry="0" style="stroke:none;fill:#f44800;"/>
<text x="112.000000" y="48.000000" font-family="Arial" font-size="7" text-anchor="middle" fill="#FFFFFF">3.14159</text>
<circle cx="94.650000" cy="36.000000" r="1"/>
<line x1="83.650000" y1="25.000000" x2="83.650000" y2="67.000000"  style="stroke: black; stroke-linecap:round; stroke-width:0.25; stroke-dasharray:3,3;"/>
<line x1="83.650000" y1="67.000000" x2="140.350000" y2="67.000000"  style="stroke: black; stroke-linecap:round; stroke-width:0.25; stroke-dasharray:3,3;"/>
<line x1="140.350000" y1="67.000000" x2="140.350000" y2="25.000000"  style="stroke: black; stroke-linecap:round; stroke-width:0.25; stroke-dasharray:3,3;"/>
<line x1="83.650000" y1="25.000000" x2="88.650000" y2="25.000000"  style="stroke: black; stroke-linecap:round; stroke-width:0.25; stroke-dasharray:3,3;"/>
<line x1="101.550000" y1="25.000000" x2="140.350000" y2="25.000000"  style="stroke: black; stroke-linecap:round; stroke-width:0.25; stroke-dasharray:3,3;"/>
<text x="88.650000" y="27.000000" font-family="Arial" font-size="7">PI</text>
<rect x="101.000000" y="77.000000" width="24.000000" height="24.000000" rx="0.1" ry="0.1" style="stroke:none;fill:#aaaaaa;;filter:url(#filter);"/>
<rect x="100.000000" y="76.000000" width="24.000000" height="24.000000" rx="0" ry="0" style="stroke:none;fill:#f44800;"/>
<text x="112.000000" y="90.000000" font-family="Arial" font-size="7" text-anchor="middle" fill="#FFFFFF">0.5</text>
<circle cx="102.000000" cy="78.000000" r="1"/>
<rect x="158.350000" y="51.000000" width="24.000000" height="24.000000" rx="0.1" ry="0.1" style="stroke:none;fill:#aaaaaa;;filter:url(#filter);"/>
<rect x="157.350000" y="50.000000" width="24.000000" height="24.000000" rx="0" ry="0" style="stroke:none;fill:#4B71A1;"/>
<text x="169.350000" y="64.000000" font-family="Arial" font-size="7" text-anchor="middle" fill="#FFFFFF">*</text>
<circle cx="159.350000" cy="52.000000" r="1"/>
<line x1="154.350000" y1="57.000000" x2="157.350000" y2="58.000000"  transform="rotate(0.000000,157.350000,58.000000)" style="stroke: black; stroke-width:0.25;"/>
<line x1="154.350000" y1="59.000000" x2="157.350000" y2="58.000000"  transform="rotate(0.000000,157.350000,58.000000)" style="stroke: black; stroke-width:0.25;"/>
<line x1="154.350000" y1="65.000000" x2="157.350000" y2="66.000000"  transform="rotate(0.000000,157.350000,66.000000)" style="stroke: black; stroke-width:0.25;"/>
<line x1="154.350000" y1="67.000000" x2="157.350000" y2="66.000000"  transform="rotate(0.000000,157.350000,66.000000)" style="stroke: black; stroke-width:0.25;"/>
<rect x="25.000000" y="109.000000" width="24.000000" height="24.000000" rx="0.1" ry="0.1" style="stroke:none;fill:#aaaaaa;;filter:url(#filter);"/>
<rect x="24.000000" y="108.000000" width="24.000000" height="24.000000" rx="0" ry="0" style="stroke:none;fill:#f44800;"/>
<text x="36.000000" y="122.000000" font-family="Arial" font-size="7" text-anchor="middle" fill="#FFFFFF">30</text>
<circle cx="26.000000" cy="110.000000" r="1"/>
<rect x="25.000000" y="141.000000" width="24.000000" height="24.000000" rx="0.1" ry="0.1" style="stroke:none;fill:#aaaaaa;;filter:url(#filter);"/>
<rect x="24.000000" y="140.000000" width="24.000000" height="24.000000" rx="0" ry="0" style="stroke:none;fill:#f44800;"/>
<text x="36.000000" y="154.000000" font-family="Arial" font-size="7" text-anchor="middle" fill="#FFFFFF">135</text>
<circle cx="26.000000" cy="142.000000" r="1"/>
<rect x="65.000000" y="125.000000" width="24.000000" height="24.000000" rx="0.1" ry="0.1" style="stroke:none;fill:#aaaaaa;;filter:url(#filter);"/>
<rect x="64.000000" y="124.000000" width="24.000000" height="24.000000" rx="0" ry="0" style="stroke:none;fill:#4B71A1;"/>
<text x="76.000000" y="138.000000" font-family="Arial" font-size="7" text-anchor="middle" fill="#FFFFFF">+</text>
<circle cx="66.000000" cy="126.000000" r="1"/>
<line x1="61.000000" y1="131.000000" x2="64.000000" y2="132.000000"  transform="rotate(0.000000,64.000000,132.000000)" style="stroke: black; stroke-width:0.25;"/>
<line x1="61.000000" y1="133.000000" x2="64.000000" y2="132.000000"  transform="rotate(0.000000,64.000000,132.000000)" style="stroke: black; stroke-width:0.25;"/>
<line x1="61.000000" y1="139.000000" x2="64.000000" y2="140.000000"  transform="rotate(0.000000,64.000000,140.000000)" style="stroke: black; stroke-width:0.25;"/>
<line x1="61.000000" y1="141.000000" x2="64.000000" y2="140.000000"  transform="rotate(0.000000,64.000000,140.000000)" style="stroke: black; stroke-width:0.25;"/>
<rect x="45.000000" y="173.000000" width="24.000000" height="24.000000" rx="0.1" ry="0.1" style="stroke:none;fill:#aaaaaa;;filter:url(#filter);"/>
<rect x="44.000000" y="172.000000" width="24.000000" height="24.000000" rx="0" ry="0" style="stroke:none;fill:#f44800;"/>
<text x="56.000000" y="186.000000" font-family="Arial" font-size="7" text-anchor="middle" fill="#FFFFFF">60</text>
<circle cx="46.000000" cy="174.000000" r="1"/>
<rect x="105.000000" y="141.000000" width="24.000000" height="24.000000" rx="0.1" ry="0.1" style="stroke:none;fill:#aaaaaa;;filter:url(#filter);"/>
<rect x="104.000000" y="140.000000" width="24.000000" height="24.000000" rx="0" ry="0" style="stroke:none;fill:#4B71A1;"/>
<text x="116.000000" y="154.000000" font-family="Arial" font-size="7" text-anchor="middle" fill="#FFFFFF">/</text>
<circle cx="106.000000" cy="142.000000" r="1"/>
<line x1="101.000000" y1="147.000000" x2="104.000000" y2="148.000000"  transform="rotate(0.000000,104.000000,148.000000)" style="stroke: black; stroke-width:0.25;"/>
<line x1="101.000000" y1="149.000000" x2="104.000000" y2="148.000000"  transform="rotate(0.000000,104.000000,148.000000)" style="stroke: black; stroke-width:0.25;"/>
<line x1="101.000000" y1="155.000000" x2="104.000000" y2="156.000000"  transform="rotate(0.000000,104.000000,156.000000)" style="stroke: black; stroke-width:0.25;"/>
<line x1="101.000000" y1="157.000000" x2="104.000000" y2="156.000000"  transform="rotate(0.000000,104.000000,156.000000)" style="stroke: black; stroke-width:0.25;"/>
<rect x="45.000000" y="205.000000" width="24.000000" height="24.000000" rx="0.1" ry="0.1" style="stroke:none;fill:#aaaaaa;;filter:url(#filter);"/>
<rect x="44.000000" y="204.000000" width="24.000000" height="24.000000" rx="0" ry="0" style="stroke:none;fill:#f44800;"/>
<text x="56.000000" y="218.000000" font-family="Arial" font-size="7" text-anchor="middle" fill="#FFFFFF">135</text>
<circle cx="46.000000" cy="206.000000" r="1"/>
<rect x="45.000000" y="237.000000" width="24.000000" height="24.000000" rx="0.1" ry="0.1" style="stroke:none;fill:#aaaaaa;;filter:url(#filter);"/>
<rect x="44.000000" y="236.000000" width="24.000000" height="24.000000" rx="0" ry="0" style="stroke:none;fill:#f44800;"/>
<text x="56.000000" y="250.000000" font-family="Arial" font-size="7" text-anchor="middle" fill="#FFFFFF">30</text>
<circle cx="46.000000" cy="238.000000" r="1"/>
<rect x="85.000000" y="221.000000" width="24.000000" height="24.000000" rx="0.1" ry="0.1" style="stroke:none;fill:#aaaaaa;;filter:url(#filter);"/>
<rect x="84.000000" y="220.000000" width="24.000000" height="24.000000" rx="0" ry="0" style="stroke:none;fill:#4B71A1;"/>
<text x="96.000000" y="234.000000" font-family="Arial" font-size="7" text-anchor="middle" fill="#FFFFFF">&lt;=</text>
<circle cx="86.000000" cy="222.000000" r="1"/>
<line x1="81.000000" y1="227.000000" x2="84.000000" y2="228.000000"  transform="rotate(0.000000,84.000000,228.000000)" style="stroke: black; stroke-width:0.25;"/>
<line x1="81.000000" y1="229.000000" x2="84.000000" y2="228.000000"  transform="rotate(0.000000,84.000000,228.000000)" style="stroke: black; stroke-width:0.25;"/>
<line x1="81.000000" y1="235.000000" x2="84.000000" y2="236.000000"  transform="rotate(0.000000,84.000000,236.000000)" style="stroke: black; stroke-width:0.25;"/>
<line x1="81.000000" y1="237.000000" x2="84.000000" y2="236.000000"  transform="rotate(0.000000,84.000000,236.000000)" style="stroke: black; stroke-width:0.25;"/>
<rect x="145.000000" y="173.000000" width="24.000000" height="24.000000" rx="0.1" ry="0.1" style="stroke:none;fill:#aaaaaa;;filter:url(#filter);"/>
<rect x="144.000000" y="172.000000" width="24.000000" height="24.000000" rx="0" ry="0" style="stroke:none;fill:#4B71A1;"/>
<text x="156.000000" y="186.000000" font-family="Arial" font-size="7" text-anchor="middle" fill="#FFFFFF">*</text>
<circle cx="146.000000" cy="174.000000" r="1"/>
<line x1="141.000000" y1="179.000000" x2="144.000000" y2="180.000000"  transform="rotate(0.000000,144.000000,180.000000)" style="stroke: black; stroke-width:0.25;"/>
<line x1="141.000000" y1="181.000000" x2="144.000000" y2="180.000000"  transform="rotate(0.000000,144.000000,180.000000)" style="stroke: black; stroke-width:0.25;"/>
<line x1="141.000000" y1="187.000000" x2="144.000000" y2="188.000000"  transform="rotate(0.000000,144.000000,188.000000)" style="stroke: black; stroke-width:0.25;"/>
<line x1="141.000000" y1="189.000000" x2="144.000000" y2="188.000000"  transform="rotate(0.000000,144.000000,188.000000)" style="stroke: black; stroke-width:0.25;"/>
<rect x="25.000000" y="269.000000" width="24.000000" height="24.000000" rx="0.1" ry="0.1" style="stroke:none;fill:#aaaaaa;;filter:url(#filter);"/>
<rect x="24.000000" y="268.000000" width="24.000000" height="24.000000" rx="0" ry="0" style="stroke:none;fill:#f44800;"/>
<text x="36.000000" y="282.000000" font-family="Arial" font-size="7" text-anchor="middle" fill="#FFFFFF">135</text>
<circle cx="26.000000" cy="270.000000" r="1"/>
<rect x="25.000000" y="301.000000" width="24.000000" height="24.000000" rx="0.1" ry="0.1" style="stroke:none;fill:#aaaaaa;;filter:url(#filter);"/>
<rect x="24.000000" y="300.000000" width="24.000000" height="24.000000" rx="0" ry="0" style="stroke:none;fill:#f44800;"/>
<text x="36.000000" y="314.000000" font-family="Arial" font-size="7" text-anchor="middle" fill="#FFFFFF">330</text>
<circle cx="26.000000" cy="302.000000" r="1"/>
<rect x="65.000000" y="285.000000" width="24.000000" height="24.000000" rx="0.1" ry="0.1" style="stroke:none;fill:#aaaaaa;;filter:url(#filter);"/>
<rect x="64.000000" y="284.000000" width="24.000000" height="24.000000" rx="0" ry="0" style="stroke:none;fill:#4B71A1;"/>
<text x="76.000000" y="298.000000" font-family="Arial" font-size="7" text-anchor="middle" fill="#FFFFFF">-</text>
<circle cx="66.000000" cy="286.000000" r="1"/>
<line x1="61.000000" y1="291.000000" x2="64.000000" y2="292.000000"  transform="rotate(0.000000,64.000000,292.000000)" style="stroke: black; stroke-width:0.25;"/>
<line x1="61.000000" y1="293.000000" x2="64.000000" y2="292.000000"  transform="rotate(0.000000,64.000000,292.000000)" style="stroke: black; stroke-width:0.25;"/>
<line x1="61.000000" y1="299.000000" x2="64.000000" y2="300.000000"  transform="rotate(0.000000,64.000000,300.000000)" style="stroke: black; stroke-width:0.25;"/>
<line x1="61.000000" y1="301.000000" x2="64.000000" y2="300.000000"  transform="rotate(0.000000,64.000000,300.000000)" style="stroke: black; stroke-width:0.25;"/>
<rect x="45.000000" y="333.000000" width="24.000000" height="24.000000" rx="0.1" ry="0.1" style="stroke:none;fill:#aaaaaa;;filter:url(#filter);"/>
<rect x="44.000000" y="332.000000" width="24.000000" height="24.000000" rx="0" ry="0" style="stroke:none;fill:#f44800;"/>
<text x="56.000000" y="346.000000" font-family="Arial" font-size="7" text-anchor="middle" fill="#FFFFFF">60</text>
<circle cx="46.000000" cy="334.000000" r="1"/>
<rect x="105.000000" y="301.000000" width="24.000000" height="24.000000" rx="0.1" ry="0.1" style="stroke:none;fill:#aaaaaa;;filter:url(#filter);"/>
<rect x="104.000000" y="300.000000" width="24.000000" height="24.000000" rx="0" ry="0" style="stroke:none;fill:#4B71A1;"/>
<text x="116.000000" y="314.000000" font-family="Arial" font-size="7" text-anchor="middle" fill="#FFFFFF">/</text>
<circle cx="106.000000" cy="302.000000" r="1"/>
<line x1="101.000000" y1="307.000000" x2="104.000000" y2="308.000000"  transform="rotate(0.000000,104.000000,308.000000)" style="stroke: black; stroke-width:0.25;"/>
<line x1="101.000000" y1="309.000000" x2="104.000000" y2="308.000000"  transform="rotate(0.000000,104.000000,308.000000)" style="stroke: black; stroke-width:0.25;"/>
<line x1="101.000000" y1="315.000000" x2="104.000000" y2="316.000000"  transform="rotate(0.000000,104.000000,316.000000)" style="stroke: black; stroke-width:0.25;"/>
<line x1="101.000000" y1="317.000000" x2="104.000000" y2="316.000000"  transform="rotate(0.000000,104.000000,316.000000)" style="stroke: black; stroke-width:0.25;"/>
<rect x="45.000000" y="365.000000" width="24.000000" height="24.000000" rx="0.1" ry="0.1" style="stroke:none;fill:#aaaaaa;;filter:url(#filter);"/>
<rect x="44.000000" y="364.000000" width="24.000000" height="24.000000" rx="0" ry="0" style="stroke:none;fill:#f44800;"/>
<text x="56.000000" y="378.000000" font-family="Arial" font-size="7" text-anchor="middle" fill="#FFFFFF">135</text>
<circle cx="46.000000" cy="366.000000" r="1"/>
<rect x="45.000000" y="397.000000" width="24.000000" height="24.000000" rx="0.1" ry="0.1" style="stroke:none;fill:#aaaaaa;;filter:url(#filter);"/>
<rect x="44.000000" y="396.000000" width="24.000000" height="24.000000" rx="0" ry="0" style="stroke:none;fill:#f44800;"/>
<text x="56.000000" y="410.000000" font-family="Arial" font-size="7" text-anchor="middle" fill="#FFFFFF">330</text>
<circle cx="46.000000" cy="398.000000" r="1"/>
<rect x="85.000000" y="381.000000" width="24.000000" height="24.000000" rx="0.1" ry="0.1" style="stroke:none;fill:#aaaaaa;;filter:url(#filter);"/>
<rect x="84.000000" y="380.000000" width="24.000000" height="24.000000" rx="0" ry="0" style="stroke:none;fill:#4B71A1;"/>
<text x="96.000000" y="394.000000" font-family="Arial" font-size="7" text-anchor="middle" fill="#FFFFFF">&gt;=</text>
<circle cx="86.000000" cy="382.000000" r="1"/>
<line x1="81.000000" y1="387.000000" x2="84.000000" y2="388.000000"  transform="rotate(0.000000,84.000000,388.000000)" style="stroke: black; stroke-width:0.25;"/>
<line x1="81.000000" y1="389.000000" x2="84.000000" y2="388.000000"  transform="rotate(0.000000,84.000000,388.000000)" style="stroke: black; stroke-width:0.25;"/>
<line x1="81.000000" y1="395.000000" x2="84.000000" y2="396.000000"  transform="rotate(0.000000,84.000000,396.000000)" style="stroke: black; stroke-width:0.25;"/>
<line x1="81.000000" y1="397.000000" x2="84.000000" y2="396.000000"  transform="rotate(0.000000,84.000000,396.000000)" style="stroke: black; stroke-width:0.25;"/>
<rect x="145.000000" y="333.000000" width="24.000000" height="24.000000" rx="0.1" ry="0.1" style="stroke:none;fill:#aaaaaa;;filter:url(#filter);"/>
<rect x="144.000000" y="332.000000" width="24.000000" height="24.000000" rx="0" ry="0" style="stroke:none;fill:#4B71A1;"/>
<text x="156.000000" y="346.000000" font-family="Arial" font-size="7" text-anchor="middle" fill="#FFFFFF">*</text>
<circle cx="146.000000" cy="334.000000" r="1"/>
<line x1="141.000000" y1="339.000000" x2="144.000000" y2="340.000000"  transform="rotate(0.000000,144.000000,340.000000)" style="stroke: black; stroke-width:0.25;"/>
<line x1="141.000000" y1="341.000000" x2="144.000000" y2="340.000000"  transform="rotate(0.000000,144.000000,340.000000)" style="stroke: black; stroke-width:0.25;"/>
<line x1="141.000000" y1="347.000000" x2="144.000000" y2="348.000000"  transform="rotate(0.000000,144.000000,348.000000)" style="stroke: black; stroke-width:0.25;"/>
<line x1="141.000000" y1="349.000000" x2="144.000000" y2="348.000000"  transform="rotate(0.000000,144.000000,348.000000)" style="stroke: black; stroke-width:0.25;"/>
<rect x="185.000000" y="253.000000" width="24.000000" height="24.000000" rx="0.1" ry="0.1" style="stroke:none;fill:#aaaaaa;;filter:url(#filter);"/>
<rect x="184.000000" y="252.000000" width="24.000000" height="24.000000" rx="0" ry="0" style="stroke:none;fill:#4B71A1;"/>
<text x="196.000000" y="266.000000" font-family="Arial" font-size="7" text-anchor="middle" fill="#FFFFFF">+</text>
<circle cx="186.000000" cy="254.000000" r="1"/>
<line x1="181.000000" y1="259.000000" x2="184.000000" y2="260.000000"  transform="rotate(0.000000,184.000000,260.000000)" style="stroke: black; stroke-width:0.25;"/>
<line x1="181.000000" y1="261.000000" x2="184.000000" y2="260.000000"  transform="rotate(0.000000,184.000000,260.000000)" style="stroke: black; stroke-width:0.25;"/>
<line x1="181.000000" y1="267.000000" x2="184.000000" y2="268.000000"  transform="rotate(0.000000,184.000000,268.000000)" style="stroke: black; stroke-width:0.25;"/>
<line x1="181.000000" y1="269.000000" x2="184.000000" y2="268.000000"  transform="rotate(0.000000,184.000000,268.000000)" style="stroke: black; stroke-width:0.25;"/>
<rect x="217.000000" y="253.000000" width="24.000000" height="24.000000" rx="0.1" ry="0.1" style="stroke:none;fill:#aaaaaa;;filter:url(#filter);"/>
<rect x="216.000000" y="252.000000" width="24.000000" height="24.000000" rx="0" ry="0" style="stroke:none;fill:#4B71A1;"/>
<text x="228.000000" y="266.000000" font-family="Arial" font-size="7" text-anchor="middle" fill="#FFFFFF">abs</text>
<circle cx="218.000000" cy="254.000000" r="1"/>
<line x1="213.000000" y1="263.000000" x2="216.000000" y2="264.000000"  transform="rotate(0.000000,216.000000,264.000000)" style="stroke: black; stroke-width:0.25;"/>
<line x1="213.000000" y1="265.000000" x2="216.000000" y2="264.000000"  transform="rotate(0.000000,216.000000,264.000000)" style="stroke: black; stroke-width:0.25;"/>
<rect x="257.000000" y="211.000000" width="24.000000" height="24.000000" rx="0.1" ry="0.1" style="stroke:none;fill:#aaaaaa;;filter:url(#filter);"/>
<rect x="256.000000" y="210.000000" width="24.000000" height="24.000000" rx="0" ry="0" style="stroke:none;fill:#4B71A1;"/>
<text x="268.000000" y="224.000000" font-family="Arial" font-size="7" text-anchor="middle" fill="#FFFFFF">*</text>
<circle cx="258.000000" cy="212.000000" r="1"/>
<line x1="253.000000" y1="217.000000" x2="256.000000" y2="218.000000"  transform="rotate(0.000000,256.000000,218.000000)" style="stroke: black; stroke-width:0.25;"/>
<line x1="253.000000" y1="219.000000" x2="256.000000" y2="218.000000"  transform="rotate(0.000000,256.000000,218.000000)" style="stroke: black; stroke-width:0.25;"/>
<line x1="253.000000" y1="225.000000" x2="256.000000" y2="226.000000"  transform="rotate(0.000000,256.000000,226.000000)" style="stroke: black; stroke-width:0.25;"/>
<line x1="253.000000" y1="227.000000" x2="256.000000" y2="226.000000"  transform="rotate(0.000000,256.000000,226.000000)" style="stroke: black; stroke-width:0.25;"/>
<line x1="15.000000" y1="15.000000" x2="15.000000" y2="429.000000"  style="stroke: black; stroke-linecap:round; stroke-width:0.25; stroke-dasharray:3,3;"/>
<line x1="15.000000" y1="429.000000" x2="297.000000" y2="429.000000"  style="stroke: black; stroke-linecap:round; stroke-width:0.25; stroke-dasharray:3,3;"/>
<line x1="297.000000" y1="429.000000" x2="297.000000" y2="15.000000"  style="stroke: black; stroke-linecap:round; stroke-width:0.25; stroke-dasharray:3,3;"/>
<line x1="15.000000" y1="15.000000" x2="20.000000" y2="15.000000"  style="stroke: black; stroke-linecap:round; stroke-width:0.25; stroke-dasharray:3,3;"/>
<line x1="61.925000" y1="15.000000" x2="297.000000" y2="15.000000"  style="stroke: black; stroke-linecap:round; stroke-width:0.25; stroke-dasharray:3,3;"/>
<text x="20.000000" y="17.000000" font-family="Arial" font-size="7">ratio_minus</text>
<line x1="299.000000" y1="221.000000" x2="302.000000" y2="222.000000"  transform="rotate(0.000000,302.000000,222.000000)" style="stroke: black; stroke-width:0.25;"/>
<line x1="299.000000" y1="223.000000" x2="302.000000" y2="222.000000"  transform="rotate(0.000000,302.000000,222.000000)" style="stroke: black; stroke-width:0.25;"/>
<line x1="48.000000" y1="120.000000" x2="52.000000" y2="120.000000"  style="stroke:black; stroke-linecap:round; stroke-width:0.25;"/>
<line x1="48.000000" y1="152.000000" x2="52.000000" y2="152.000000"  style="stroke:black; stroke-linecap:round; stroke-width:0.25;"/>
<line x1="48.000000" y1="280.000000" x2="52.000000" y2="280.000000"  style="stroke:black; stroke-linecap:round; stroke-width:0.25;"/>
<line x1="48.000000" y1="312.000000" x2="52.000000" y2="312.000000"  style="stroke:black; stroke-linecap:round; stroke-width:0.25;"/>
<line x1="52.000000" y1="120.000000" x2="60.000000" y2="120.000000"  style="stroke:black; stroke-linecap:round; stroke-width:0.25;"/>
<line x1="52.000000" y1="140.000000" x2="60.000000" y2="140.000000"  style="stroke:black; stroke-linecap:round; stroke-width:0.25;"/>
<line x1="52.000000" y1="152.000000" x2="52.000000" y2="140.000000"  style="stroke:black; stroke-linecap:round; stroke-width:0.25;"/>
<line x1="52.000000" y1="152.000000" x2="52.000000" y2="152.000000"  style="stroke:black; stroke-linecap:round; stroke-width:0.25;"/>
<line x1="52.000000" y1="280.000000" x2="60.000000" y2="280.000000"  style="stroke:black; stroke-linecap:round; stroke-width:0.25;"/>
<line x1="52.000000" y1="300.000000" x2="60.000000" y2="300.000000"  style="stroke:black; stroke-linecap:round; stroke-width:0.25;"/>
<line x1="52.000000" y1="312.000000" x2="52.000000" y2="300.000000"  style="stroke:black; stroke-linecap:round; stroke-width:0.25;"/>
<line x1="52.000000" y1="312.000000" x2="52.000000" y2="312.000000"  style="stroke:black; stroke-linecap:round; stroke-width:0.25;"/>
<line x1="60.000000" y1="120.000000" x2="60.000000" y2="132.000000"  style="stroke:black; stroke-linecap:round; stroke-width:0.25;"/>
<line x1="60.000000" y1="132.000000" x2="60.000000" y2="132.000000"  style="stroke:black; stroke-linecap:round; stroke-width:0.25;"/>
<line x1="60.000000" y1="132.000000" x2="64.000000" y2="132.000000"  style="stroke:black; stroke-linecap:round; stroke-width:0.25;"/>
<line x1="60.000000" y1="140.000000" x2="64.000000" y2="140.000000"  style="stroke:black; stroke-linecap:round; stroke-width:0.25;"/>
<line x1="60.000000" y1="280.000000" x2="60.000000" y2="292.000000"  style="stroke:black; stroke-linecap:round; stroke-width:0.25;"/>
<line x1="60.000000" y1="292.000000" x2="60.000000" y2="292.000000"  style="stroke:black; stroke-linecap:round; stroke-width:0.25;"/>
<line x1="60.000000" y1="292.000000" x2="64.000000" y2="292.000000"  style="stroke:black; stroke-linecap:round; stroke-width:0.25;"/>
<line x1="60.000000" y1="300.000000" x2="64.000000" y2="300.000000"  style="stroke:black; stroke-linecap:round; stroke-width:0.25;"/>
<line x1="68.000000" y1="184.000000" x2="72.000000" y2="184.000000"  style="stroke:black; stroke-linecap:round; stroke-width:0.25;"/>
<line x1="68.000000" y1="216.000000" x2="72.000000" y2="216.000000"  style="stroke:black; stroke-linecap:round; stroke-width:0.25;"/>
<line x1="68.000000" y1="248.000000" x2="72.000000" y2="248.000000"  style="stroke:black; stroke-linecap:round; stroke-width:0.25;"/>
<line x1="68.000000" y1="344.000000" x2="72.000000" y2="344.000000"  style="stroke:black; stroke-linecap:round; stroke-width:0.25;"/>
<line x1="68.000000" y1="376.000000" x2="72.000000" y2="376.000000"  style="stroke:black; stroke-linecap:round; stroke-width:0.25;"/>
<line x1="68.000000" y1="408.000000" x2="72.000000" y2="408.000000"  style="stroke:black; stroke-linecap:round; stroke-width:0.25;"/>
<line x1="72.000000" y1="184.000000" x2="92.000000" y2="184.000000"  style="stroke:black; stroke-linecap:round; stroke-width:0.25;"/>
<line x1="72.000000" y1="216.000000" x2="80.000000" y2="216.000000"  style="stroke:black; stroke-linecap:round; stroke-width:0.25;"/>
<line x1="72.000000" y1="236.000000" x2="80.000000" y2="236.000000"  style="stroke:black; stroke-linecap:round; stroke-width:0.25;"/>
<line x1="72.000000" y1="248.000000" x2="72.000000" y2="236.000000"  style="stroke:black; stroke-linecap:round; stroke-width:0.25;"/>
<line x1="72.000000" y1="248.000000" x2="72.000000" y2="248.000000"  style="stroke:black; stroke-linecap:round; stroke-width:0.25;"/>
<line x1="72.000000" y1="344.000000" x2="92.000000" y2="344.000000"  style="stroke:black; stroke-linecap:round; stroke-width:0.25;"/>
<line x1="72.000000" y1="376.000000" x2="80.000000" y2="376.000000"  style="stroke:black; stroke-linecap:round; stroke-width:0.25;"/>
<line x1="72.000000" y1="396.000000" x2="80.000000" y2="396.000000"  style="stroke:black; stroke-linecap:round; stroke-width:0.25;"/>
<line x1="72.000000" y1="408.000000" x2="72.000000" y2="396.000000"  style="stroke:black; stroke-linecap:round; stroke-width:0.25;"/>
<line x1="72.000000" y1="408.000000" x2="72.000000" y2="408.000000"  style="stroke:black; stroke-linecap:round; stroke-width:0.25;"/>
<line x1="80.000000" y1="216.000000" x2="80.000000" y2="228.000000"  style="stroke:black; stroke-linecap:round; stroke-width:0.25;"/>
<line x1="80.000000" y1="228.000000" x2="80.000000" y2="228.000000"  style="stroke:black; stroke-linecap:round; stroke-width:0.25;"/>
<line x1="80.000000" y1="228.000000" x2="84.000000" y2="228.000000"  style="stroke:black; stroke-linecap:round; stroke-width:0.25;"/>
<line x1="80.000000" y1="236.000000" x2="84.000000" y2="236.000000"  style="stroke:black; stroke-linecap:round; stroke-width:0.25;"/>
<line x1="80.000000" y1="376.000000" x2="80.000000" y2="388.000000"  style="stroke:black; stroke-linecap:round; stroke-width:0.25;"/>
<line x1="80.000000" y1="388.000000" x2="80.000000" y2="388.000000"  style="stroke:black; stroke-linecap:round; stroke-width:0.25;"/>
<line x1="80.000000" y1="388.000000" x2="84.000000" y2="388.000000"  style="stroke:black; stroke-linecap:round; stroke-width:0.25;"/>
<line x1="80.000000" y1="396.000000" x2="84.000000" y2="396.000000"  style="stroke:black; stroke-linecap:round; stroke-width:0.25;"/>
<line x1="88.000000" y1="136.000000" x2="92.000000" y2="136.000000"  style="stroke:black; stroke-linecap:round; stroke-width:0.25;"/>
<line x1="88.000000" y1="296.000000" x2="92.000000" y2="296.000000"  style="stroke:black; stroke-linecap:round; stroke-width:0.25;"/>
<line x1="92.000000" y1="136.000000" x2="100.000000" y2="136.000000"  style="stroke:black; stroke-linecap:round; stroke-width:0.25;"/>
<line x1="92.000000" y1="156.000000" x2="100.000000" y2="156.000000"  style="stroke:black; stroke-linecap:round; stroke-width:0.25;"/>
<line x1="92.000000" y1="184.000000" x2="92.000000" y2="156.000000"  style="stroke:black; stroke-linecap:round; stroke-width:0.25;"/>
<line x1="92.000000" y1="184.000000" x2="92.000000" y2="184.000000"  style="stroke:black; stroke-linecap:round; stroke-width:0.25;"/>
<line x1="92.000000" y1="296.000000" x2="100.000000" y2="296.000000"  style="stroke:black; stroke-linecap:round; stroke-width:0.25;"/>
<line x1="92.000000" y1="316.000000" x2="100.000000" y2="316.000000"  style="stroke:black; stroke-linecap:round; stroke-width:0.25;"/>
<line x1="92.000000" y1="344.000000" x2="92.000000" y2="316.000000"  style="stroke:black; stroke-linecap:round; stroke-width:0.25;"/>
<line x1="92.000000" y1="344.000000" x2="92.000000" y2="344.000000"  style="stroke:black; stroke-linecap:round; stroke-width:0.25;"/>
<line x1="100.000000" y1="136.000000" x2="100.000000" y2="148.000000"  style="stroke:black; stroke-linecap:round; stroke-width:0.25;"/>
<line x1="100.000000" y1="148.000000" x2="100.000000" y2="148.000000"  style="stroke:black; stroke-linecap:round; stroke-width:0.25;"/>
<line x1="100.000000" y1="148.000000" x2="104.000000" y2="148.000000"  style="stroke:black; stroke-linecap:round; stroke-width:0.25;"/>
<line x1="100.000000" y1="156.000000" x2="104.000000" y2="156.000000"  style="stroke:black; stroke-linecap:round; stroke-width:0.25;"/>
<line x1="100.000000" y1="296.000000" x2="100.000000" y2="308.000000"  style="stroke:black; stroke-linecap:round; stroke-width:0.25;"/>
<line x1="100.000000" y1="308.000000" x2="100.000000" y2="308.000000"  style="stroke:black; stroke-linecap:round; stroke-width:0.25;"/>
<line x1="100.000000" y1="308.000000" x2="104.000000" y2="308.000000"  style="stroke:black; stroke-linecap:round; stroke-width:0.25;"/>
<line x1="100.000000" y1="316.000000" x2="104.000000" y2="316.000000"  style="stroke:black; stroke-linecap:round; stroke-width:0.25;"/>
<line x1="108.000000" y1="232.000000" x2="112.000000" y2="232.000000"  style="stroke:black; stroke-linecap:round; stroke-width:0.25;"/>
<line x1="108.000000" y1="392.000000" x2="112.000000" y2="392.000000"  style="stroke:black; stroke-linecap:round; stroke-width:0.25;"/>
<line x1="112.000000" y1="232.000000" x2="132.000000" y2="232.000000"  style="stroke:black; stroke-linecap:round; stroke-width:0.25;"/>
<line x1="112.000000" y1="392.000000" x2="132.000000" y2="392.000000"  style="stroke:black; stroke-linecap:round; stroke-width:0.25;"/>
<line x1="124.000000" y1="88.000000" x2="128.000000" y2="88.000000"  style="stroke:black; stroke-linecap:round; stroke-width:0.25;"/>
<line x1="128.000000" y1="88.000000" x2="145.350000" y2="88.000000"  style="stroke:black; stroke-linecap:round; stroke-width:0.25;"/>
<line x1="128.000000" y1="152.000000" x2="132.000000" y2="152.000000"  style="stroke:black; stroke-linecap:round; stroke-width:0.25;"/>
<line x1="128.000000" y1="312.000000" x2="132.000000" y2="312.000000"  style="stroke:black; stroke-linecap:round; stroke-width:0.25;"/>
<line x1="131.350000" y1="46.000000" x2="135.350000" y2="46.000000"  style="stroke:black; stroke-linecap:round; stroke-width:0.25;"/>
<line x1="132.000000" y1="152.000000" x2="140.000000" y2="152.000000"  style="stroke:black; stroke-linecap:round; stroke-width:0.25;"/>
<line x1="132.000000" y1="188.000000" x2="140.000000" y2="188.000000"  style="stroke:black; stroke-linecap:round; stroke-width:0.25;"/>
<line x1="132.000000" y1="232.000000" x2="132.000000" y2="188.000000"  style="stroke:black; stroke-linecap:round; stroke-width:0.25;"/>
<line x1="132.000000" y1="232.000000" x2="132.000000" y2="232.000000"  style="stroke:black; stroke-linecap:round; stroke-width:0.25;"/>
<line x1="132.000000" y1="312.000000" x2="140.000000" y2="312.000000"  style="stroke:black; stroke-linecap:round; stroke-width:0.25;"/>
<line x1="132.000000" y1="348.000000" x2="140.000000" y2="348.000000"  style="stroke:black; stroke-linecap:round; stroke-width:0.25;"/>
<line x1="132.000000" y1="392.000000" x2="132.000000" y2="348.000000"  style="stroke:black; stroke-linecap:round; stroke-width:0.25;"/>
<line x1="132.000000" y1="392.000000" x2="132.000000" y2="392.000000"  style="stroke:black; stroke-linecap:round; stroke-width:0.25;"/>
<line x1="135.350000" y1="46.000000" x2="145.350000" y2="46.000000"  style="stroke:black; stroke-linecap:round; stroke-width:0.25;"/>
<line x1="140.000000" y1="152.000000" x2="140.000000" y2="180.000000"  style="stroke:black; stroke-linecap:round; stroke-width:0.25;"/>
<line x1="140.000000" y1="180.000000" x2="140.000000" y2="180.000000"  style="stroke:black; stroke-linecap:round; stroke-width:0.25;"/>
<line x1="140.000000" y1="180.000000" x2="144.000000" y2="180.000000"  style="stroke:black; stroke-linecap:round; stroke-width:0.25;"/>
<line x1="140.000000" y1="188.000000" x2="144.000000" y2="188.000000"  style="stroke:black; stroke-linecap:round; stroke-width:0.25;"/>
<line x1="140.000000" y1="312.000000" x2="140.000000" y2="340.000000"  style="stroke:black; stroke-linecap:round; stroke-width:0.25;"/>
<line x1="140.000000" y1="340.000000" x2="140.000000" y2="340.000000"  style="stroke:black; stroke-linecap:round; stroke-width:0.25;"/>
<line x1="140.000000" y1="340.000000" x2="144.000000" y2="340.000000"  style="stroke:black; stroke-linecap:round; stroke-width:0.25;"/>
<line x1="140.000000" y1="348.000000" x2="144.000000" y2="348.000000"  style="stroke:black; stroke-linecap:round; stroke-width:0.25;"/>
<line x1="145.350000" y1="46.000000" x2="153.350000" y2="46.000000"  style="stroke:black; stroke-linecap:round; stroke-width:0.25;"/>
<line x1="145.350000" y1="66.000000" x2="153.350000" y2="66.000000"  style="stroke:black; stroke-linecap:round; stroke-width:0.25;"/>
<line x1="145.350000" y1="88.000000" x2="145.350000" y2="66.000000"  style="stroke:black; stroke-linecap:round; stroke-width:0.25;"/>
<line x1="145.350000" y1="88.000000" x2="145.350000" y2="88.000000"  style="stroke:black; stroke-linecap:round; stroke-width:0.25;"/>
<line x1="153.350000" y1="46.000000" x2="153.350000" y2="58.000000"  style="stroke:black; stroke-linecap:round; stroke-width:0.25;"/>
<line x1="153.350000" y1="58.000000" x2="153.350000" y2="58.000000"  style="stroke:black; stroke-linecap:round; stroke-width:0.25;"/>
<line x1="153.350000" y1="58.000000" x2="157.350000" y2="58.000000"  style="stroke:black; stroke-linecap:round; stroke-width:0.25;"/>
<line x1="153.350000" y1="66.000000" x2="157.350000" y2="66.000000"  style="stroke:black; stroke-linecap:round; stroke-width:0.25;"/>
<line x1="168.000000" y1="184.000000" x2="172.000000" y2="184.000000"  style="stroke:black; stroke-linecap:round; stroke-width:0.25;"/>
<line x1="168.000000" y1="344.000000" x2="172.000000" y2="344.000000"  style="stroke:black; stroke-linecap:round; stroke-width:0.25;"/>
<line x1="172.000000" y1="184.000000" x2="180.000000" y2="184.000000"  style="stroke:black; stroke-linecap:round; stroke-width:0.25;"/>
<line x1="172.000000" y1="268.000000" x2="180.000000" y2="268.000000"  style="stroke:black; stroke-linecap:round; stroke-width:0.25;"/>
<line x1="172.000000" y1="344.000000" x2="172.000000" y2="268.000000"  style="stroke:black; stroke-linecap:round; stroke-width:0.25;"/>
<line x1="172.000000" y1="344.000000" x2="172.000000" y2="344.000000"  style="stroke:black; stroke-linecap:round; stroke-width:0.25;"/>
<line x1="180.000000" y1="184.000000" x2="180.000000" y2="260.000000"  style="stroke:black; stroke-linecap:round; stroke-width:0.25;"/>
<line x1="180.000000" y1="260.000000" x2="180.000000" y2="260.000000"  style="stroke:black; stroke-linecap:round; stroke-width:0.25;"/>
<line x1="180.000000" y1="260.000000" x2="184.000000" y2="260.000000"  style="stroke:black; stroke-linecap:round; stroke-width:0.25;"/>
<line x1="180.000000" y1="268.000000" x2="184.000000" y2="268.000000"  style="stroke:black; stroke-linecap:round; stroke-width:0.25;"/>
<line x1="181.350000" y1="62.000000" x2="185.350000" y2="62.000000"  style="stroke:black; stroke-linecap:round; stroke-width:0.25;"/>
<line x1="185.350000" y1="62.000000" x2="244.000000" y2="62.000000"  style="stroke:black; stroke-linecap:round; stroke-width:0.25;"/>
<line x1="208.000000" y1="264.000000" x2="212.000000" y2="264.000000"  style="stroke:black; stroke-linecap:round; stroke-width:0.25;"/>
<line x1="212.000000" y1="264.000000" x2="212.000000" y2="264.000000"  style="stroke:black; stroke-linecap:round; stroke-width:0.25;"/>
<line x1="212.000000" y1="264.000000" x2="216.000000" y2="264.000000"  style="stroke:black; stroke-linecap:round; stroke-width:0.25;"/>
<line x1="240.000000" y1="264.000000" x2="244.000000" y2="264.000000"  style="stroke:black; stroke-linecap:round; stroke-width:0.25;"/>
<line x1="244.000000" y1="62.000000" x2="252.000000" y2="62.000000"  style="stroke:black; stroke-linecap:round; stroke-width:0.25;"/>
<line x1="244.000000" y1="226.000000" x2="252.000000" y2="226.000000"  style="stroke:black; stroke-linecap:round; stroke-width:0.25;"/>
<line x1="244.000000" y1="264.000000" x2="244.000000" y2="226.000000"  style="stroke:black; stroke-linecap:round; stroke-width:0.25;"/>
<line x1="244.000000" y1="264.000000" x2="244.000000" y2="264.000000"  style="stroke:black; stroke-linecap:round; stroke-width:0.25;"/>
<line x1="252.000000" y1="62.000000" x2="252.000000" y2="218.000000"  style="stroke:black; stroke-linecap:round; stroke-width:0.25;"/>
<line x1="252.000000" y1="218.000000" x2="252.000000" y2="218.000000"  style="stroke:black; stroke-linecap:round; stroke-width:0.25;"/>
<line x1="252.000000" y1="218.000000" x2="256.000000" y2="218.000000"  style="stroke:black; stroke-linecap:round; stroke-width:0.25;"/>
<line x1="252.000000" y1="226.000000" x2="256.000000" y2="226.000000"  style="stroke:black; stroke-linecap:round; stroke-width:0.25;"/>
<line x1="280.000000" y1="222.000000" x2="284.000000" y2="222.000000"  style="stroke:black; stroke-linecap:round; stroke-width:0.25;"/>
<line x1="284.000000" y1="222.000000" x2="284.000000" y2="222.000000"  style="stroke:black; stroke-linecap:round; stroke-width:0.25;"/>
<line x1="284.000000" y1="222.000000" x2="288.000000" y2="222.000000"  style="stroke:black; stroke-linecap:round; stroke-width:0.25;"/>
<line x1="288.000000" y1="222.000000" x2="292.000000" y2="222.000000"  style="stroke:black; stroke-linecap:round; stroke-width:0.25;"/>
<line x1="292.000000" y1="222.000000" x2="302.000000" y2="222.000000"  style="stroke:black; stroke-linecap:round; stroke-width:0.25;"/>
</svg>
